<svg xmlns="http://www.w3.org/2000/svg" width="128" height="128" fill="none" viewBox="0 0 128 128"><path fill="url(#a)" d="M30 8h68c6.627 0 12 5.373 12 12v88c0 6.627-5.373 12-12 12H30z"/><path fill="#000" fill-opacity=".05" d="M30 8h68c6.627 0 12 5.373 12 12v88c0 6.627-5.373 12-12 12H30z"/><path fill="url(#b)" d="M30 8h68c6.627 0 12 5.373 12 12v86c0 6.627-5.373 12-12 12H30z"/><path fill="url(#c)" d="M30 8h68c6.627 0 12 5.373 12 12v84c0 6.627-5.373 12-12 12H30z"/><path fill="#fff" fill-opacity=".25" d="M30 8h68c6.627 0 12 5.373 12 12v84c0 6.627-5.373 12-12 12H30z"/><path fill="url(#d)" d="M30 8h68c6.627 0 12 5.373 12 12v82c0 6.627-5.373 12-12 12H30z"/><path fill="#fff" fill-opacity=".5" d="M30 8h68c6.627 0 12 5.373 12 12v82c0 6.627-5.373 12-12 12H30z"/><path fill="#f8f8f8" d="M30 8h68c6.627 0 12 5.373 12 12v80c0 6.627-5.373 12-12 12H30z"/><path fill="url(#e)" d="M18 16a8 8 0 0 1 8-8h4v112h-4a8 8 0 0 1-8-8z"/><path fill="#f57818" d="M18 16a8 8 0 0 1 8-8h4v104h-4a8 8 0 0 1-8-8z"/><path stroke="#e0e0e0" stroke-linecap="round" d="M34 105h72M34 89h72m-72 8h72M34 73h72m-72 8h72M34 57h72m-72 8h72M34 41h72m-72 8h72M34 25h72m-72 8h72M34 17h72"/><path fill="url(#f)" d="M78 8h20c6.627 0 12 5.373 12 12v20z"/><mask id="h" width="32" height="32" x="78" y="8" maskUnits="userSpaceOnUse" style=""><path fill="url(#g)" d="M78 8h20c6.627 0 12 5.373 12 12v20z"/></mask><g mask="url(#h)"><path stroke="#c8c8c8" stroke-linecap="round" d="M34 105h72M34 89h72m-72 8h72M34 73h72m-72 8h72M34 57h72m-72 8h72M34 41h72m-72 8h72M34 25h72m-72 8h72M34 17h72"/></g><g filter="url(#i)"><path fill="url(#j)" d="M110 40H90c-6.627 0-12-5.373-12-12V8z"/></g><g filter="url(#k)"><path fill="#eee" d="M110 44a4 4 0 0 0-4-4h4z"/></g><path fill="#d0d0d0" d="M54.534 96.31c-.876-.844-.956-2.33-1.76-3.244-.998-1.135-2.675-1.703-3.554-2.947a56 56 0 0 1-2.477-3.852 80 80 0 0 1-2.232-4.07 132 132 0 0 1-2.063-4.218q-.679-1.451-1.344-2.916a572 572 0 0 1-1.015-2.244c-.02-.044-.005-.117.044-.204s.126-.18.22-.262c.093-.083.196-.148.288-.186.092-.037.165-.042.206-.016l.897.562.995.625c-.344.382-.58.699-.608.926-.014.116.033.225.16.225.113 0 .264-.059.408-.115.151-.058.294-.113.377-.096.142.03.377-.03.625-.094q.136-.036.27-.067.474.3.944.602c.05.14.102.265.19.332.078.06.217.055.376.033l.145.094q.47.303.934.61c.083.299.178.606.387.93.09.14.141.31.191.474.074.241.144.469.325.562.12.063.154.21.188.358.046.198.092.395.346.386.16-.005.334-.035.496-.062.257-.044.482-.082.564-.01.154.137.392.163.602.186.252.027.464.05.44.256q-.007.047-.02.114c-.047.23-.12.598.219.734.12.049.307.03.49.011.265-.027.524-.053.56.13.006.028-.022.086-.047.138-.032.068-.06.126-.01.103.143-.067.316-.126.504-.19q.208-.069.433-.154A69 69 0 0 1 53.7 80.9a3.7 3.7 0 0 0-.242.62c-.061.24.01.417.104.644.068.168.147.363.193.631.085.497.421.788.714.906q.092.037.195.073c.26.096.585.214 1.103.526.49.295.831.613 1.087.852.13.122.24.224.334.291.163.115.351.267.54.419.296.238.593.478.798.58q.11.055.241.11c.241.105.533.232.854.478.336.258.465.488.552.77.035.114-.047.314-.132.522-.121.294-.248.6-.05.69a.6.6 0 0 0 .184.034c.13.013.27.025.309.132.013.038-.005.097-.023.155-.02.063-.04.126-.016.157.087.116.19.213.281.299.118.11.217.203.238.297.037.166.2.24.366.314.127.057.255.114.328.214.21.285.638.557 1.144.777.192.083.207.284.227.54.012.16.026.342.084.531.034.107.172.101.3.095.118-.005.227-.01.237.075.01.075-.1.224-.205.366-.116.157-.225.306-.155.332.037.013.133-.015.247-.049l.14-.04-.07.062a.55.55 0 0 0-.183.337q-.014.064-.036.13c-.06.157.02.285.1.366.035.034.023.103.009.183-.013.071-.027.152-.012.225.009.042-.01.097-.027.142-.012.034-.022.062-.018.076.003.013.047-.013.097-.043.036-.021.074-.044.103-.056.067-.027.104-.017.101.014 0 .014-.01.033-.02.052-.01.022-.022.044-.02.058.012.068.092.073.176.077.092.005.187.01.199.1a.4.4 0 0 1-.018.114c-.011.043-.022.086-.015.108.027.09.174.066.31.045.09-.014.174-.027.215-.006.075.04.216-.029.32-.079.054-.026.099-.047.118-.047l.015.039c-.001.016-.002.032.008.038l.003.001c.02.077.026.163.033.25.015.192.03.382.185.46.033.017.104.003.175-.012.087-.019.177-.037.203.001.062.091.058.242.054.39-.005.225-.01.443.209.446.073 0 .171-.023.27-.048q.085-.021.162-.036-.097.076-.181.145a2 2 0 0 1-.313.227c-.232.123-.542.304-.73.48a4 4 0 0 1-.17.148c-.15.126-.302.255-.333.358-.02.069-.06.235.093.182a1 1 0 0 0 .148-.088c.108-.074.236-.16.301-.14l.034.014c.044.02.094.043.184-.012.104-.063.204-.157.32-.267.152-.143.332-.313.586-.475.05-.032.077-.033.097-.033.015 0 .026 0 .04-.012s.045-.043.083-.081c.133-.135.365-.371.44-.308.02.017.028.05.035.08.01.043.02.08.063.047l.052-.04.048.083c-.021.073.02.112.073.16l.038.038.094.167a.5.5 0 0 1-.003.212c-.033.177-.144.404-.253.626a8 8 0 0 0-.13.274.14.14 0 0 0-.058-.003c-.138.023-.334.156-.514.279-.12.081-.233.158-.317.195-.155.066-.292.194-.393.289a1 1 0 0 1-.127.107c-.024.014-.043.013-.062.012a.1.1 0 0 0-.056.008c-.267.112-.368.238-.515.422-.08.101-.176.22-.32.364-.155.15-.205.189-.301.21l-.164.296c.015.007.072-.029.165-.09a.44.44 0 0 1 .372-.071.3.3 0 0 0 .112.007c.178-.041.33-.209.463-.356.073-.081.141-.156.205-.2a.4.4 0 0 0 .07-.071 1 1 0 0 1 .053-.06c.147-.13.29-.188.424-.242a1.5 1.5 0 0 0 .361-.19.4.4 0 0 1 .175-.037q.046-.001.098-.008c.046-.007.11-.052.177-.099.047-.032.096-.066.141-.089.081-.04.136-.027.187-.014a.3.3 0 0 0 .066.012q.014 0 .036-.018.14.019.275.03c.45.046.841.084.98.534.025.085.088.145.169.192q.192.393.38.79a1.7 1.7 0 0 0-.197.446c-.064.259.004.407.084.581.06.129.125.273.15.486.04.359.11.703.27 1.02.157.316.366.654.531.877.09.121.076.345.064.553-.018.293-.034.556.243.463a3 3 0 0 0 .355-.173c.094-.05.186-.099.258-.131l.071.187c-.06.203-.09.46.17.453l.072.193a30 30 0 0 1 .196.542v.002q.05.136.097.272l.041.116q.052.148.103.295l.053.157q.045.128.087.256.07.208.138.415.012.036-.024.1a.523.523 0 0 1-.241.213q-.068.026-.102.011-.195-.094-.391-.192l-.242-.12-.147-.074-.278-.141-.11-.055-.256-.133-.001-.001-.126-.065-.383-.201-.204-.109-.113-.061-.062-.034a60 60 0 0 1-1.412-.784 69 69 0 0 1-1.381-.812 70 70 0 0 1-1.351-.84c-2.827-1.802-5.538-3.724-8.036-5.836a50 50 0 0 1-2.414-2.179m1.8-16.696c-.964-1.038-1.101-2.677-1.992-3.782-1.105-1.372-2.915-2.21-3.897-3.687a76 76 0 0 1-2.78-4.54 107 107 0 0 1-2.524-4.748 175 175 0 0 1-2.349-4.887 346 346 0 0 1-1.536-3.368 728 728 0 0 1-1.162-2.59c-.023-.051-.01-.13.039-.218a.9.9 0 0 1 .226-.26.9.9 0 0 1 .301-.165c.097-.029.175-.025.22.008l.977.732 1.084.813c-.354.374-.595.69-.617.936-.01.125.044.25.179.267.12.014.28-.03.432-.073.16-.044.31-.086.4-.056.152.05.401.015.663-.023q.144-.022.287-.038.516.39 1.028.781c.06.16.119.303.214.388.086.076.234.089.404.084a168 168 0 0 1 1.177.91c.099.34.21.688.444 1.07.101.165.163.358.222.544.087.274.17.532.365.658.131.084.173.25.214.416.056.223.112.445.383.468.17.014.356.005.527-.005.273-.014.512-.027.602.063.17.17.424.228.65.28.27.063.497.115.478.338q-.005.05-.018.121c-.04.247-.107.641.26.834.13.068.33.072.524.075.283.005.558.009.603.215.007.03-.02.09-.046.145-.031.07-.059.13-.008.111.151-.055.334-.097.533-.143q.22-.049.457-.113a95 95 0 0 1 1.613 1.447 3.5 3.5 0 0 0-.237.649c-.057.254.026.457.133.718.078.193.17.417.228.717.109.555.477.917.795 1.084q.1.052.21.105c.28.138.632.31 1.197.718.533.387.908.78 1.19 1.075.144.15.263.276.367.361.177.147.384.338.59.529.325.299.65.6.873.74q.12.072.261.15c.262.146.577.322.928.633.369.326.515.596.617.915.041.13-.04.339-.123.555-.12.307-.244.627-.03.75a.7.7 0 0 0 .199.062c.139.03.29.062.333.184.016.042-.002.105-.019.166-.019.067-.037.133-.011.17.097.139.21.258.31.364.13.136.24.25.265.356.045.187.222.289.402.392.137.079.276.158.358.277.234.34.7.692 1.248.998.208.116.231.338.261.622.019.176.04.378.109.592.04.122.187.133.323.143.125.01.242.018.256.112.012.083-.1.233-.206.375-.119.157-.23.306-.155.343.04.02.142.001.262-.02q.072-.015.15-.026l-.075.058c-.137.11-.16.229-.183.345q-.01.07-.033.138c-.06.165.03.316.12.415.037.041.026.115.014.201-.01.077-.023.163-.004.245.01.047-.008.105-.024.153-.011.035-.021.064-.017.08.004.015.05-.008.102-.034a1 1 0 0 1 .108-.048c.071-.021.11-.006.11.028a.2.2 0 0 1-.02.054c-.011.023-.022.046-.02.062.015.076.1.09.19.107.099.017.2.035.216.135a.4.4 0 0 1-.015.122c-.01.046-.02.091-.013.116.033.102.19.096.333.09.096-.004.186-.007.23.022.082.052.23-.004.34-.046.056-.022.103-.04.124-.036l.016.044c0 .017 0 .035.011.043q0 0 .003.002c.023.086.033.182.044.276.022.214.045.424.213.53.037.022.11.016.186.008.093-.008.188-.017.217.028.07.108.071.273.072.435.002.245.004.483.238.514.078.01.182-.003.288-.016q.089-.013.171-.02-.101.071-.189.136c-.12.088-.223.164-.326.208-.243.106-.568.264-.762.433a4 4 0 0 1-.176.14c-.156.119-.315.24-.344.349-.02.073-.057.25.105.212a.7.7 0 0 0 .155-.078c.113-.067.246-.145.317-.114l.036.019c.049.028.103.06.197.01.109-.055.212-.145.333-.25.157-.138.343-.3.609-.446.052-.029.08-.025.103-.023.015.002.027.003.04-.008.017-.012.048-.041.087-.078.138-.131.378-.36.46-.281.022.021.031.058.04.092.013.049.023.09.069.06l.054-.038.054.098c-.02.077.025.125.083.185l.043.046.105.195a.6.6 0 0 1 .004.232c-.028.19-.14.424-.248.653q-.07.146-.13.284a.2.2 0 0 0-.061-.011c-.147.008-.352.128-.54.24-.125.073-.243.143-.332.172-.162.053-.305.176-.41.267a1 1 0 0 1-.13.1c-.027.013-.047.01-.067.006a.1.1 0 0 0-.06.001c-.28.088-.384.214-.535.396-.083.1-.18.219-.33.358-.16.144-.211.18-.314.19l-.165.305c.017.009.077-.023.174-.078a.44.44 0 0 1 .395-.03.3.3 0 0 0 .12.022c.189-.022.345-.186.482-.33.075-.08.145-.153.212-.194a.3.3 0 0 0 .072-.068q.025-.03.055-.058c.152-.124.303-.17.444-.21a1.4 1.4 0 0 0 .229-.084q.033-.016.064-.035a1 1 0 0 1 .087-.045.4.4 0 0 1 .185-.016 1 1 0 0 0 .104.003c.048-.002.115-.043.185-.085.05-.03.1-.061.148-.08.086-.034.144-.012.2.009a.4.4 0 0 0 .07.021q.015.002.038-.015.15.038.295.07c.483.106.9.199 1.064.71.031.096.1.17.188.232q.219.455.433.915a1.6 1.6 0 0 0-.194.463c-.06.275.018.446.11.648.067.148.143.314.176.552.056.398.142.784.323 1.152.18.367.414.763.599 1.03.1.144.093.387.087.614-.01.318-.018.604.275.538.094-.021.236-.083.374-.143.098-.043.194-.085.27-.11l.083.214c-.058.214-.08.491.198.517l.082.22q.089.234.173.467l.056.154v.001l.113.311.048.133.12.336.062.179.102.292q.082.236.162.473.012.04-.023.106a.5.5 0 0 1-.108.123.5.5 0 0 1-.142.079q-.072.02-.108 0l-.425-.262-.262-.162-.16-.1-.301-.19-.119-.076q-.14-.087-.279-.178h-.001q-.069-.046-.137-.088l-.415-.27-.222-.146-.124-.081-.066-.045a81 81 0 0 1-3.04-2.11 91 91 0 0 1-1.47-1.094c-3.083-2.339-6.044-4.795-8.785-7.43a68 68 0 0 1-2.654-2.699m12.589-11.946c-.816-.853-.812-2.313-1.553-3.232-.92-1.14-2.543-1.742-3.34-2.987a53 53 0 0 1-2.225-3.847 76 76 0 0 1-1.972-4.054 126 126 0 0 1-1.797-4.195 251 251 0 0 1-1.16-2.897l-.502-1.276-.373-.954c-.017-.044.001-.115.054-.199s.135-.173.232-.252c.097-.078.202-.14.295-.174s.165-.037.204-.01l.853.575.946.64c-.36.366-.612.67-.652.893-.02.113.02.221.145.224.112.003.265-.05.41-.1.152-.054.296-.104.377-.085.138.034.374-.02.621-.076q.136-.03.272-.058l.896.616c.042.139.086.262.168.33.074.062.212.06.37.043l.138.096q.445.31.887.623c.065.296.14.6.328.924.08.14.123.308.163.47.059.24.115.464.288.56.115.066.14.212.166.357.034.195.068.39.319.388a4 4 0 0 0 .492-.048c.257-.036.48-.067.557.006.144.138.378.17.584.198.247.033.455.061.419.263q-.009.046-.026.111c-.059.225-.153.584.174.727.117.05.302.037.483.024.264-.02.52-.039.546.142.004.028-.026.084-.054.135-.035.065-.066.122-.017.1.146-.062.32-.115.508-.173q.211-.062.437-.14a66 66 0 0 1 1.388 1.166 3.7 3.7 0 0 0-.274.603c-.074.233-.013.408.066.634.058.166.125.36.155.624.056.49.371.784.654.908l.187.078c.251.1.565.224 1.06.544.466.303.784.625 1.023.866.122.123.223.226.313.295.154.117.332.27.51.425.277.242.557.485.754.592q.105.056.231.113c.232.11.513.242.815.492.318.262.432.492.502.77.028.113-.065.308-.16.509-.136.285-.278.583-.088.677.044.022.11.03.18.038.127.015.265.032.296.138.01.037-.01.094-.031.15-.023.063-.046.123-.025.154.08.117.176.214.261.301.11.112.202.206.218.298.027.164.184.241.343.319.122.059.245.118.312.218.192.286.597.563 1.084.793.185.087.189.284.194.537.002.157.005.336.053.523.027.106.163.103.29.101.116-.002.224-.003.23.08.005.073-.112.217-.223.353-.123.152-.24.295-.172.322.035.014.132-.01.246-.04q.068-.02.142-.036l-.075.058a.56.56 0 0 0-.198.326q-.016.063-.043.126c-.068.154.003.281.078.363.032.034.016.101-.002.18-.016.07-.035.148-.024.22.006.041-.016.095-.035.14-.013.031-.025.059-.022.073s.047-.012.098-.04a1 1 0 0 1 .104-.052c.069-.025.104-.014.1.016a.2.2 0 0 1-.022.05c-.012.022-.025.043-.023.058.007.067.086.073.168.08.09.007.184.015.19.103a.4.4 0 0 1-.024.11c-.013.043-.026.085-.02.107.021.088.168.07.303.053.09-.012.174-.022.213 0 .072.04.215-.023.32-.07.055-.024.1-.044.12-.042l.011.038c-.001.015-.003.031.007.038h.002c.015.077.017.162.018.246.004.19.008.377.157.458.032.017.102.004.173-.008.087-.016.177-.031.2.007.056.09.044.239.032.385-.018.219-.036.433.18.442.072.002.17-.018.27-.04q.084-.018.162-.03l-.187.137a2 2 0 0 1-.322.214c-.236.115-.551.284-.746.452a4 4 0 0 1-.176.14c-.155.12-.314.243-.35.343-.024.067-.073.229.082.181.034-.01.089-.044.15-.083.111-.069.242-.15.306-.128q.015.005.032.014c.043.02.09.044.183-.007.106-.06.21-.149.33-.254.158-.136.345-.298.605-.45.052-.03.078-.03.098-.03.014 0 .025 0 .04-.01q.026-.021.086-.078c.14-.13.382-.355.452-.29.019.017.025.05.03.079.008.043.015.078.06.048l.053-.039.043.084c-.026.07.013.11.062.159l.036.038.083.166a.5.5 0 0 1-.015.209c-.042.172-.165.392-.285.607q-.076.136-.144.266a.13.13 0 0 0-.056-.005c-.138.02-.339.144-.523.26-.123.077-.239.149-.324.183-.157.061-.3.183-.404.273a1 1 0 0 1-.131.102.1.1 0 0 1-.062.01.1.1 0 0 0-.056.006c-.27.103-.377.224-.532.4a4 4 0 0 1-.337.35c-.161.143-.212.18-.309.197l-.178.287c.014.007.073-.027.169-.084a.44.44 0 0 1 .37-.06c.041.009.077.016.11.01.179-.036.338-.196.477-.337.077-.078.148-.15.214-.192.028-.017.05-.042.073-.067a1 1 0 0 1 .056-.057c.152-.124.297-.177.431-.226a1.6 1.6 0 0 0 .368-.178.4.4 0 0 1 .174-.03q.046 0 .097-.006c.046-.006.111-.048.18-.092a1 1 0 0 1 .145-.084.23.23 0 0 1 .185-.009.3.3 0 0 0 .064.013q.015 0 .036-.016.138.021.27.037c.442.056.825.104.936.55.021.084.08.145.156.193q.168.39.33.786a1.7 1.7 0 0 0-.218.432c-.078.252-.02.399.05.572.051.128.108.271.12.481.02.354.07.693.208 1.009.138.314.325.65.475.874.082.122.056.341.032.545-.035.287-.066.545.213.46.09-.026.227-.094.36-.16.096-.046.189-.091.262-.121l.06.186c-.071.197-.115.448.142.448l.06.191.123.405.04.133v.001l.08.27.034.116.084.292.044.155.072.254.112.411c.007.022-.004.057-.03.097a.5.5 0 0 1-.11.12.5.5 0 0 1-.14.083c-.044.016-.08.019-.1.008l-.375-.199-.232-.124-.141-.076-.37-.204q-.124-.066-.246-.136l-.002-.001-.12-.067-.366-.209q-.097-.054-.195-.112l-.11-.063-.058-.034a59 59 0 0 1-2.665-1.642q-.65-.425-1.285-.86c-2.688-1.844-5.253-3.803-7.598-5.943a48 48 0 0 1-2.258-2.202m14.467-1.83c-.775-.8-.731-2.211-1.431-3.076-.87-1.075-2.439-1.61-3.184-2.79a47 47 0 0 1-2.073-3.65 68 68 0 0 1-1.819-3.859 113 113 0 0 1-1.643-3.999c-.358-.916-.71-1.84-1.057-2.764l-.456-1.218-.34-.91c-.015-.042.005-.111.06-.194.053-.083.136-.172.233-.25.096-.078.2-.141.292-.177.092-.035.163-.04.2-.016l.819.532.907.59c-.362.364-.616.665-.661.881-.023.11.014.213.136.213.109 0 .26-.056.403-.11.15-.055.292-.108.37-.091.135.027.367-.03.61-.092q.135-.034.267-.064l.86.57c.037.132.076.25.155.314.07.057.205.052.36.03l.133.089q.426.286.85.576c.055.284.121.576.296.883.075.132.111.294.146.449.052.23.1.445.267.533.11.06.132.2.153.34.027.187.055.374.3.365.155-.006.326-.034.484-.06.251-.043.47-.08.544-.01.137.129.364.153.565.174.241.025.443.046.403.242q-.01.045-.029.107c-.063.22-.165.57.151.697.113.046.294.028.471.01.259-.027.51-.053.53.122.003.026-.028.08-.056.13-.037.065-.068.12-.02.099.145-.065.316-.121.502-.182q.207-.067.43-.148a59 59 0 0 1 1.326 1.086 4 4 0 0 0-.284.59c-.079.227-.023.394.047.61.053.159.113.344.136.599a1 1 0 0 0 .614.857q.086.035.181.07c.243.09.547.201 1.02.496.45.279.751.58.978.806.116.116.212.212.299.276.147.108.316.252.486.396.265.225.532.452.721.55q.102.05.223.103c.224.098.495.218.784.45.303.245.409.463.47.73.024.108-.072.3-.17.496-.141.28-.288.571-.105.656.043.02.107.026.175.032.124.011.258.023.286.124.01.036-.013.092-.035.147-.024.06-.047.12-.028.15.075.11.166.2.247.282.105.105.192.193.205.282.022.158.173.227.327.297.117.054.236.108.299.202.18.27.569.527 1.039.735.178.079.176.269.174.513-.001.151-.003.324.038.503.024.102.157.096.28.09.115-.005.22-.01.224.07.002.071-.116.213-.228.348-.124.15-.242.291-.177.315.035.013.13-.014.242-.046l.14-.038-.075.058a.58.58 0 0 0-.202.32q-.018.063-.046.124c-.07.15-.004.271.067.348.03.032.013.097-.007.174-.018.067-.038.143-.03.213.006.04-.018.092-.037.135-.014.032-.026.059-.024.073.002.012.047-.014.097-.042.036-.02.075-.042.104-.053.067-.026.101-.017.096.012a.2.2 0 0 1-.023.05c-.012.02-.025.042-.023.056.004.064.082.068.162.072.088.004.18.01.183.094.001.027-.013.068-.026.108-.015.041-.028.082-.024.103.02.085.163.063.295.042.088-.013.171-.026.209-.006.069.037.21-.028.315-.076.054-.025.098-.046.117-.045l.01.037c-.001.015-.003.03.006.036l.002.001c.013.073.012.155.012.237-.001.182-.003.363.14.437.031.016.1.002.17-.013.086-.017.173-.035.195.001.053.087.037.23.021.371-.024.212-.047.42.165.422.07 0 .167-.023.264-.046q.084-.02.16-.035-.102.073-.187.138c-.12.09-.221.167-.32.216-.234.118-.547.291-.742.458a5 5 0 0 1-.176.141c-.155.12-.313.243-.35.34-.026.066-.078.224.074.174a1 1 0 0 0 .15-.085c.11-.07.24-.152.301-.132l.032.012c.04.019.087.04.178-.012.106-.06.21-.15.33-.254.158-.136.346-.298.604-.453.05-.03.077-.03.096-.031.014 0 .025 0 .039-.011q.025-.021.087-.078c.139-.129.382-.353.449-.293.018.016.023.047.027.075.007.042.013.076.057.045l.053-.039.04.08c-.027.069.01.106.056.152l.035.035.076.158a.5.5 0 0 1-.02.202c-.046.168-.171.384-.294.595q-.08.135-.148.26a.1.1 0 0 0-.055-.003c-.136.023-.335.15-.519.267-.122.077-.237.15-.321.185a1.6 1.6 0 0 0-.403.276c-.054.047-.1.085-.13.102a.1.1 0 0 1-.061.012.1.1 0 0 0-.055.008c-.266.106-.374.227-.53.401a4 4 0 0 1-.34.347c-.16.143-.211.18-.306.2l-.182.282c.014.006.072-.028.167-.086a.45.45 0 0 1 .364-.069.3.3 0 0 0 .107.007c.175-.04.335-.2.475-.34.077-.077.149-.148.214-.19q.04-.03.073-.068a1 1 0 0 1 .056-.056c.152-.125.295-.18.428-.231.076-.03.149-.058.218-.097l.063-.037a.413.413 0 0 1 .255-.083 1 1 0 0 0 .095-.008c.044-.007.11-.05.178-.094.048-.032.098-.064.143-.086a.23.23 0 0 1 .182-.013q.03.009.063.01.012 0 .035-.017.134.017.263.03c.43.04.803.076.9.503.018.08.074.137.148.181q.153.373.301.75a1.7 1.7 0 0 0-.226.424c-.082.246-.029.386.034.551.047.122.099.258.105.461.01.34.049.667.176.968.126.3.3.62.441.831.077.115.045.328.016.525-.041.278-.078.528.197.439.088-.029.224-.098.356-.165.095-.048.187-.094.259-.125l.054.178c-.075.192-.125.436.127.428q.027.093.052.184l.11.386.036.128v.001q.036.13.07.259l.03.11.076.28.038.148.063.243.1.394q.007.035-.033.095a.6.6 0 0 1-.11.119.6.6 0 0 1-.14.084q-.066.025-.098.01l-.361-.18-.223-.114-.136-.07-.256-.133-.101-.052-.236-.125-.002-.001-.116-.061-.352-.19-.188-.104-.104-.057-.057-.032a54 54 0 0 1-2.561-1.509q-.625-.39-1.233-.793c-2.578-1.704-5.033-3.522-7.267-5.52a43 43 0 0 1-2.148-2.063"/><mask id="l" width="60" height="66" x="40" y="42" maskUnits="userSpaceOnUse" style=""><path fill="#b0b0b0" d="M54.534 96.308c-.876-.845-.956-2.33-1.76-3.244-.998-1.135-2.675-1.703-3.554-2.947a56 56 0 0 1-2.477-3.852 80 80 0 0 1-2.232-4.07 132 132 0 0 1-2.063-4.218q-.679-1.451-1.344-2.916a593 593 0 0 1-1.015-2.244c-.02-.044-.005-.117.044-.204s.126-.18.22-.262c.093-.083.196-.148.288-.186.092-.037.165-.042.206-.016l.897.562.995.625c-.344.382-.58.699-.608.926-.014.116.033.225.16.225.113 0 .264-.059.408-.115.151-.058.294-.113.377-.096.142.03.377-.03.625-.094q.136-.036.27-.067.474.3.944.603c.05.14.102.264.19.331.078.06.217.055.376.033l.145.094q.47.303.934.61c.083.299.178.606.387.93.09.14.141.31.191.474.074.241.144.469.325.562.12.063.154.21.188.358.046.198.092.395.346.386.16-.005.334-.035.496-.062.257-.044.482-.082.564-.01.154.137.392.163.602.186.252.027.464.05.44.256q-.007.047-.02.114c-.047.23-.12.598.219.734.12.049.307.03.49.011.265-.027.524-.053.56.13.006.028-.022.086-.047.138-.032.068-.06.126-.01.103.143-.067.316-.126.504-.19q.208-.069.433-.154a69 69 0 0 1 1.473 1.147 3.7 3.7 0 0 0-.242.62c-.061.24.01.417.103.644.069.168.148.363.194.631.085.497.421.788.714.906q.092.037.195.073c.26.096.585.214 1.103.526.49.295.831.613 1.087.852.13.122.24.224.334.291.163.115.351.267.54.419.296.238.593.478.798.58.073.038.154.072.241.11.241.105.533.232.854.478.336.258.465.488.552.77.035.113-.047.314-.132.522-.121.294-.248.6-.05.69a.6.6 0 0 0 .184.034c.13.012.27.025.309.132.013.037-.005.097-.023.155-.02.064-.04.126-.016.157.087.116.19.213.281.298.118.111.217.204.238.297.037.167.2.24.366.315.127.057.255.114.328.214.21.285.638.557 1.144.777.192.083.207.284.227.54.012.16.026.342.084.531.034.107.172.1.3.095.118-.005.227-.01.237.075.01.075-.1.224-.205.365-.116.158-.225.307-.155.332.037.014.133-.014.247-.048l.14-.04-.07.062a.55.55 0 0 0-.183.336q-.014.066-.036.13c-.06.158.02.286.1.367.035.034.023.103.009.183-.013.071-.027.152-.012.225.009.042-.01.097-.027.142-.012.034-.022.062-.018.076.003.013.047-.013.097-.043a1 1 0 0 1 .103-.056c.067-.027.104-.018.101.014 0 .014-.01.033-.02.052-.01.022-.022.044-.02.059.012.067.092.072.176.076.092.005.187.01.199.1a.4.4 0 0 1-.018.113c-.011.044-.022.087-.015.109.027.09.174.066.31.045.09-.014.174-.027.215-.006.075.04.216-.029.32-.079.054-.026.099-.048.118-.047l.015.039c-.001.016-.002.032.008.038l.003.001c.02.077.026.163.033.25.015.192.03.382.185.46.033.017.104.002.175-.012.087-.018.177-.037.203.001.062.091.058.242.054.39-.005.225-.01.443.209.445.073.001.171-.022.27-.047q.085-.021.162-.036-.097.076-.181.145a2 2 0 0 1-.313.227c-.232.123-.542.304-.73.48a4 4 0 0 1-.17.148c-.15.126-.302.255-.333.358-.02.069-.06.235.093.182.034-.011.088-.048.148-.088.108-.074.236-.16.301-.14l.034.014c.044.02.094.043.184-.012.104-.063.204-.157.32-.267.152-.143.332-.313.586-.476.05-.032.077-.032.097-.032.015 0 .026 0 .04-.012s.045-.043.083-.081c.133-.135.365-.371.44-.308.02.017.028.05.035.08.01.043.02.08.063.047l.052-.04.048.083c-.021.073.02.112.073.16l.038.038.094.167a.5.5 0 0 1-.003.212c-.033.177-.144.404-.253.626a8 8 0 0 0-.13.274.14.14 0 0 0-.058-.003c-.138.023-.334.156-.514.279-.12.081-.233.158-.317.194-.155.067-.292.195-.393.29a1 1 0 0 1-.127.107.1.1 0 0 1-.062.012.1.1 0 0 0-.056.008c-.267.112-.368.238-.515.422-.08.101-.176.22-.32.364-.155.15-.205.189-.301.209l-.164.297c.015.007.072-.029.165-.09a.44.44 0 0 1 .372-.071.3.3 0 0 0 .112.007c.178-.041.33-.209.463-.356.073-.081.141-.156.205-.2q.039-.03.07-.072a1 1 0 0 1 .053-.058c.147-.131.29-.189.424-.243.076-.03.149-.06.217-.1l.062-.04a.402.402 0 0 1 .257-.087 1 1 0 0 0 .098-.008c.046-.007.11-.052.177-.099.047-.033.096-.066.141-.09.081-.04.136-.026.187-.013q.033.01.066.012.014 0 .036-.018.14.018.275.03c.45.046.841.084.98.534.025.085.088.145.169.192q.192.393.38.79a1.7 1.7 0 0 0-.197.446c-.064.259.004.407.084.581.06.129.125.272.15.486.04.359.11.703.27 1.02.157.316.366.654.531.877.09.121.076.345.064.553-.018.293-.034.556.243.463a3 3 0 0 0 .355-.173c.094-.05.186-.099.258-.131l.071.187c-.06.203-.09.46.17.453q.038.097.072.193a30 30 0 0 1 .196.542v.001l.097.273.041.116q.052.148.103.295l.053.157q.045.127.087.256.07.207.138.415.012.036-.024.1a.55.55 0 0 1-.241.213q-.068.026-.102.011-.195-.095-.391-.192l-.242-.12-.147-.074-.278-.141-.11-.055-.256-.133-.001-.001-.126-.065a39 39 0 0 1-.587-.31l-.113-.061-.062-.034a60 60 0 0 1-2.793-1.597 65 65 0 0 1-1.351-.839c-2.827-1.802-5.538-3.725-8.036-5.836a50 50 0 0 1-2.414-2.179m1.8-16.696c-.964-1.038-1.101-2.677-1.992-3.782-1.105-1.372-2.915-2.21-3.897-3.687a76 76 0 0 1-2.78-4.54 107 107 0 0 1-2.524-4.748 175 175 0 0 1-2.349-4.887 349 349 0 0 1-1.536-3.369q-.334-.74-.666-1.482l-.496-1.107c-.023-.051-.01-.13.039-.218a.9.9 0 0 1 .226-.26.9.9 0 0 1 .301-.165c.097-.03.175-.025.22.008l.977.732 1.084.812c-.354.375-.595.692-.617.937-.01.125.044.25.179.267.12.014.28-.03.432-.073.16-.044.31-.086.4-.056.152.05.401.015.663-.023a8 8 0 0 1 .287-.038l1.028.78c.06.16.119.304.214.389.086.076.234.088.404.084l.158.122q.51.392 1.019.788c.099.339.21.688.444 1.07.101.165.163.358.222.544.087.274.17.532.365.658.131.084.173.25.214.416.056.223.112.445.383.468.17.014.356.004.527-.005.273-.014.512-.027.602.063.17.17.424.228.65.28.27.063.497.115.478.337q-.005.052-.018.122c-.04.247-.107.641.26.834.13.068.33.072.524.075.283.004.558.009.603.215.007.03-.02.09-.046.145-.031.07-.059.13-.008.111.151-.055.334-.097.533-.143q.22-.05.457-.114a94 94 0 0 1 1.613 1.448 3.5 3.5 0 0 0-.237.649c-.057.254.026.457.133.718.078.192.17.417.228.717.109.555.477.917.795 1.084q.1.052.21.105c.28.138.632.31 1.197.718.533.387.908.78 1.19 1.074.144.151.263.276.367.362.178.147.384.338.59.529.325.299.65.6.873.74q.12.072.261.15c.262.146.577.322.928.633.369.326.515.596.617.915.041.13-.04.339-.123.555-.12.307-.244.627-.03.75a.7.7 0 0 0 .199.062c.139.03.29.062.333.184.016.042-.002.105-.019.166-.019.067-.037.133-.011.17.097.139.21.258.31.364.13.136.24.25.265.356.045.187.222.289.402.392.137.078.276.157.358.276.234.34.7.692 1.248 1 .208.115.231.337.261.62.019.177.04.378.109.593.04.122.187.133.323.143.125.01.242.018.256.112.012.083-.1.233-.206.374-.119.158-.23.307-.155.344.04.02.142.001.262-.02l.15-.026q-.046.034-.075.058c-.137.11-.16.229-.182.345-.01.047-.018.093-.034.138-.06.165.03.316.12.415.037.041.026.115.014.201-.01.077-.023.163-.004.245.01.047-.008.105-.024.153-.011.035-.021.064-.017.08.004.015.05-.008.102-.034a1 1 0 0 1 .108-.048c.071-.022.11-.006.11.028q-.003.024-.02.054c-.011.023-.022.046-.02.062.015.076.1.09.19.106.099.018.2.036.216.136a.4.4 0 0 1-.015.122c-.01.046-.02.091-.013.116.033.102.19.096.333.09.096-.004.186-.007.23.021.082.053.23-.004.34-.045.056-.022.103-.04.124-.036l.016.044c0 .017 0 .035.011.043l.003.001c.023.087.033.182.044.277.022.213.045.424.213.53.037.022.11.015.186.008.093-.008.188-.017.217.028.07.108.071.273.072.435.002.245.004.483.238.514.078.01.182-.003.288-.017q.089-.012.171-.018-.101.07-.189.135a1.8 1.8 0 0 1-.326.208c-.243.106-.568.264-.762.432a4 4 0 0 1-.176.14c-.156.12-.315.241-.344.35-.02.073-.057.25.105.212.036-.008.092-.042.155-.078.113-.067.246-.145.317-.114l.036.019c.049.028.103.06.197.01.109-.055.212-.145.333-.25.157-.138.343-.3.609-.446.052-.029.08-.026.103-.023.015.002.027.003.041-.008.016-.012.047-.041.086-.078.138-.131.378-.36.46-.281.022.021.031.058.04.092.013.049.023.09.069.06l.054-.038.054.098c-.02.077.025.125.083.185l.043.046.105.195a.6.6 0 0 1 .004.232c-.028.19-.14.424-.248.653q-.07.146-.13.284a.2.2 0 0 0-.061-.011c-.147.008-.352.128-.54.24-.125.073-.243.143-.332.172-.162.053-.305.176-.41.266a1 1 0 0 1-.13.101c-.027.013-.047.01-.067.006a.1.1 0 0 0-.06.001c-.28.088-.384.214-.535.396-.083.1-.18.219-.33.358-.16.144-.211.18-.314.19l-.165.304c.017.01.077-.022.174-.077.175-.098.299-.06.395-.03a.3.3 0 0 0 .12.022c.189-.022.345-.186.482-.33.075-.08.145-.153.212-.194a.3.3 0 0 0 .072-.068q.025-.03.055-.058c.152-.124.303-.17.444-.21.08-.025.157-.048.229-.084q.033-.016.064-.035a1 1 0 0 1 .087-.045.4.4 0 0 1 .185-.017q.049.005.104.004c.048-.002.115-.043.185-.085.05-.03.101-.061.148-.08.086-.034.145-.012.2.009q.034.014.07.021.015.002.038-.015.15.038.295.07c.483.106.9.199 1.064.71.031.096.1.17.188.232q.219.455.433.915a1.6 1.6 0 0 0-.194.463c-.06.275.018.446.11.648.067.148.143.314.176.551.056.399.142.785.323 1.153.18.367.414.763.599 1.03.1.144.093.387.087.614-.01.318-.018.604.275.538a2.6 2.6 0 0 0 .374-.144c.098-.042.194-.084.27-.11l.083.215c-.058.213-.08.491.198.517l.082.22q.089.234.173.467l.056.154v.001l.113.311.048.133.12.336.062.179.102.292q.082.235.162.472.013.04-.023.107a.5.5 0 0 1-.108.123.5.5 0 0 1-.142.079q-.072.02-.108-.001l-.425-.26-.262-.163-.16-.1-.301-.19-.119-.076q-.14-.088-.279-.178h-.001q-.069-.046-.137-.088l-.415-.27-.222-.146-.124-.081-.066-.045a81 81 0 0 1-3.039-2.11q-.743-.54-1.472-1.094c-3.082-2.34-6.043-4.795-8.784-7.43a68 68 0 0 1-2.654-2.699m12.589-11.947c-.816-.853-.812-2.313-1.553-3.232-.92-1.14-2.543-1.742-3.34-2.987a53 53 0 0 1-2.225-3.847 76 76 0 0 1-1.972-4.054 126 126 0 0 1-1.797-4.195 251 251 0 0 1-1.16-2.897l-.502-1.276-.373-.953c-.017-.045.001-.116.054-.2s.135-.173.232-.252c.097-.078.202-.14.295-.174s.165-.036.205-.01l.852.576q.474.319.946.64c-.36.365-.612.67-.652.892-.02.113.02.221.145.225.112.002.265-.05.41-.102.152-.053.296-.103.377-.084.138.034.374-.02.621-.076q.136-.03.272-.058l.896.616c.042.139.086.263.168.33.074.062.212.061.37.043l.138.096q.445.31.887.623c.065.297.14.6.328.924.08.14.123.308.163.47.059.24.115.464.288.56.115.066.14.212.166.357.034.195.068.39.319.388.158 0 .331-.025.492-.048.257-.036.48-.067.557.006.144.139.378.17.584.198.247.034.455.062.419.263q-.009.046-.026.111c-.059.225-.153.585.174.727.117.05.302.037.483.024.264-.02.52-.038.546.143.004.027-.026.083-.054.134-.035.065-.066.122-.017.1.146-.062.32-.115.508-.172q.211-.063.437-.14a67 67 0 0 1 1.388 1.165 3.7 3.7 0 0 0-.274.603c-.074.233-.013.408.066.634.058.166.125.36.155.624.056.49.371.785.654.908l.187.078c.251.1.565.225 1.06.545.466.302.784.624 1.023.865.122.124.223.226.313.295.154.117.332.27.51.425.277.242.557.485.754.592q.105.055.231.114c.232.109.513.24.815.49.318.263.432.493.502.771.028.113-.065.308-.16.51-.136.285-.278.582-.088.676a.6.6 0 0 0 .18.038c.127.015.265.032.296.138.011.037-.01.094-.031.15-.023.063-.046.123-.025.155.08.116.176.213.261.3.11.112.202.206.218.298.027.164.184.241.343.319.122.059.245.118.312.218.192.286.597.563 1.084.793.185.087.189.284.194.537.002.157.005.336.053.523.027.106.163.104.29.101.116-.002.224-.003.23.08.005.073-.112.217-.223.353-.123.152-.24.295-.172.322.035.014.132-.01.246-.04q.068-.019.142-.036l-.075.058a.56.56 0 0 0-.198.326q-.016.063-.043.126c-.068.154.003.281.078.363.032.034.016.101-.002.18-.016.07-.035.148-.024.22.006.041-.016.095-.035.14-.013.031-.025.059-.022.073s.047-.012.098-.04c.036-.02.076-.041.104-.052.069-.025.104-.014.1.016a.2.2 0 0 1-.022.05c-.012.022-.025.043-.023.058.007.067.086.073.168.08.09.007.184.015.19.103.002.028-.01.07-.024.111-.013.043-.026.084-.02.106.021.088.168.07.303.053.09-.012.174-.022.213 0 .072.04.215-.023.32-.07.055-.024.1-.044.12-.042l.011.038c-.001.015-.003.032.007.038h.002c.015.077.017.162.018.246.004.19.008.377.157.458.032.017.102.005.173-.008.087-.016.177-.031.2.007.056.091.044.239.032.385-.018.22-.036.433.18.442.072.002.17-.018.27-.04q.084-.018.162-.03l-.187.137a2 2 0 0 1-.322.214c-.236.115-.551.284-.746.452a4 4 0 0 1-.176.14c-.155.12-.314.243-.35.343-.024.067-.073.229.082.181.034-.01.089-.044.15-.083.111-.069.242-.15.306-.128q.015.006.032.014c.043.02.09.044.183-.007.106-.06.21-.149.33-.254.158-.136.346-.298.605-.45.052-.03.078-.03.098-.03.014 0 .025 0 .04-.01.016-.012.047-.041.086-.078.14-.129.382-.355.452-.29.019.017.025.05.03.079.008.043.015.079.06.048l.053-.039.043.084c-.026.07.013.11.062.16l.036.037.083.166a.5.5 0 0 1-.015.209c-.042.172-.165.392-.285.607q-.076.136-.144.266a.13.13 0 0 0-.056-.005c-.138.02-.339.145-.523.26-.123.077-.239.15-.324.183-.157.061-.3.183-.404.273a1 1 0 0 1-.131.102.1.1 0 0 1-.062.01.1.1 0 0 0-.056.007c-.27.102-.377.223-.532.4a4 4 0 0 1-.337.349c-.16.143-.212.18-.309.197l-.178.287c.014.007.073-.026.169-.084a.44.44 0 0 1 .37-.06c.041.009.077.016.11.01.179-.036.338-.196.477-.337.077-.078.148-.15.214-.191q.04-.029.073-.068.025-.031.056-.056c.152-.125.297-.178.431-.227a1.6 1.6 0 0 0 .368-.178.4.4 0 0 1 .174-.03q.046 0 .097-.006c.046-.006.111-.048.18-.092.049-.031.099-.063.145-.084.082-.038.135-.023.185-.009a.3.3 0 0 0 .064.013q.015 0 .036-.016.138.021.27.038c.442.055.825.103.936.549.021.084.08.145.156.193q.168.39.33.786a1.7 1.7 0 0 0-.218.432c-.078.252-.02.4.05.572.051.129.108.271.12.481.02.354.07.693.208 1.009.138.314.325.651.475.874.082.122.056.341.032.545-.035.287-.066.545.213.46.09-.026.227-.093.36-.16.096-.046.19-.091.262-.121l.06.186c-.071.197-.115.448.142.448l.06.192.123.404.04.133v.002l.08.27.034.115.084.292.044.155.072.254.112.411q.01.036-.03.097a.5.5 0 0 1-.11.12.5.5 0 0 1-.14.083c-.044.017-.08.019-.1.008l-.375-.199-.232-.124-.141-.076-.266-.146-.105-.058-.245-.136-.002-.001-.12-.067-.366-.209q-.097-.054-.195-.112l-.11-.062-.058-.035a59 59 0 0 1-2.665-1.642q-.65-.425-1.285-.86c-2.688-1.844-5.253-3.803-7.598-5.943a48 48 0 0 1-2.258-2.202m14.467-1.83c-.775-.8-.731-2.21-1.431-3.076-.87-1.074-2.439-1.61-3.184-2.788a47 47 0 0 1-2.073-3.651 68 68 0 0 1-1.819-3.859 113 113 0 0 1-1.643-3.999q-.537-1.376-1.057-2.765-.23-.608-.456-1.217l-.34-.91c-.015-.043.005-.112.06-.194.053-.083.136-.172.233-.25a1.1 1.1 0 0 1 .292-.177c.092-.035.163-.04.2-.016l.819.532.907.59c-.362.364-.616.665-.661.881-.023.11.014.213.136.213.109 0 .26-.056.403-.11.15-.055.292-.108.37-.092.135.028.367-.03.61-.091q.135-.034.267-.064.43.284.86.57c.037.132.076.25.155.313.07.058.205.053.36.03l.133.09q.426.286.85.576c.055.284.121.575.296.883.075.132.111.294.146.449.052.229.1.444.267.533.11.06.132.2.153.34.027.187.055.374.3.365.155-.006.326-.034.484-.06.251-.043.47-.08.544-.01.137.128.364.152.565.173.241.026.443.047.403.242q-.01.046-.029.108c-.063.219-.165.569.151.697.113.046.294.027.471.01.259-.027.51-.053.53.121.003.026-.028.081-.056.132-.037.064-.068.12-.02.097.145-.064.316-.12.502-.181q.207-.066.43-.148a60 60 0 0 1 1.326 1.086 4 4 0 0 0-.284.59c-.079.227-.023.394.047.61.053.159.113.344.136.599a1 1 0 0 0 .614.857q.086.035.181.07c.243.09.547.2 1.02.496.45.278.751.58.978.806.116.116.212.212.299.276.147.108.316.252.486.396.265.225.532.452.721.55q.102.05.223.102c.224.1.495.219.784.451.303.245.409.463.47.73.024.108-.072.3-.17.496-.141.28-.288.571-.105.656.043.02.107.026.175.032.124.011.258.023.286.124.01.036-.013.092-.035.147-.024.06-.047.12-.028.15.075.11.166.2.247.282.105.105.192.193.205.281.022.158.173.228.327.298.117.054.236.108.3.202.178.27.567.527 1.038.735.178.079.176.269.174.513-.001.151-.003.324.038.503.024.102.157.096.28.09.115-.005.22-.01.224.07.002.07-.116.213-.228.348-.124.15-.242.291-.177.315.035.013.13-.014.242-.046l.14-.038-.075.058a.58.58 0 0 0-.202.32q-.018.063-.046.123c-.07.15-.004.272.067.348.03.033.013.098-.007.174-.018.068-.038.144-.03.214.006.04-.018.092-.037.135-.014.032-.026.058-.024.072.002.012.047-.013.097-.04a1 1 0 0 1 .104-.054c.067-.026.101-.017.096.012a.2.2 0 0 1-.023.05c-.012.02-.025.041-.023.055.004.065.082.069.162.073.088.004.18.01.183.094a.4.4 0 0 1-.026.108c-.015.041-.028.082-.024.103.02.085.163.063.295.042.088-.014.171-.026.209-.006.069.037.21-.028.315-.076.054-.025.098-.046.117-.045l.01.036c-.001.016-.003.031.006.037l.002.001c.013.073.012.155.012.236-.001.183-.003.364.14.438.031.016.1.002.17-.013.086-.017.173-.035.195.001.053.087.037.23.021.371-.024.212-.047.42.165.421.07.001.167-.022.264-.045q.084-.02.16-.035-.102.073-.187.138c-.12.09-.221.166-.32.216-.234.118-.547.29-.742.458a5 5 0 0 1-.176.141c-.155.12-.313.243-.35.34-.026.066-.078.224.074.174a1 1 0 0 0 .15-.085c.11-.07.24-.152.301-.133l.032.013c.04.019.087.04.178-.012.106-.06.21-.15.33-.254a4 4 0 0 1 .604-.453c.05-.03.077-.031.096-.031.014 0 .025 0 .039-.011q.025-.021.087-.078c.139-.129.382-.353.449-.293.018.016.023.047.027.075.007.041.013.076.057.045q.026-.018.053-.04l.04.08c-.027.07.01.107.056.152l.035.036.076.158a.5.5 0 0 1-.02.202c-.046.168-.171.384-.294.595q-.08.134-.148.26a.1.1 0 0 0-.055-.003c-.136.023-.335.15-.519.267-.122.077-.237.15-.321.185-.155.064-.297.186-.403.276-.054.047-.1.085-.13.102-.025.014-.043.013-.061.012a.1.1 0 0 0-.055.008c-.266.106-.374.226-.53.401a4 4 0 0 1-.34.347c-.16.143-.211.18-.306.2l-.182.282c.014.006.072-.028.167-.086.17-.105.279-.084.364-.069a.3.3 0 0 0 .107.006c.175-.04.335-.198.475-.339.077-.077.149-.148.214-.19q.04-.03.073-.068.026-.03.056-.056c.152-.125.295-.18.428-.231a1.6 1.6 0 0 0 .364-.183.4.4 0 0 1 .172-.034q.044-.001.095-.009c.044-.006.11-.049.178-.093a1 1 0 0 1 .143-.086c.082-.039.134-.026.182-.013q.03.009.063.01.012 0 .035-.017.134.016.263.03c.43.04.803.076.9.502.018.081.074.138.148.182q.153.373.301.75a1.7 1.7 0 0 0-.226.424c-.082.245-.029.386.034.551.047.122.099.258.105.461.01.34.049.667.176.968.126.3.3.62.441.83.077.116.045.328.016.526-.041.278-.078.528.197.439.088-.029.224-.098.356-.165.095-.048.187-.095.259-.125l.054.177c-.075.193-.125.437.127.43q.027.091.052.182.056.194.11.387l.036.128v.001q.036.13.07.259l.03.11.076.28.038.148.063.243.1.394q.007.034-.033.095a.6.6 0 0 1-.11.119.6.6 0 0 1-.14.084q-.066.025-.098.01l-.361-.18-.223-.114-.136-.07-.357-.185-.236-.125-.002-.001-.116-.061-.352-.191-.188-.103-.104-.057-.057-.032a54 54 0 0 1-2.561-1.509q-.625-.39-1.233-.793c-2.578-1.704-5.033-3.522-7.267-5.52a43 43 0 0 1-2.148-2.063"/></mask><g mask="url(#l)"><path stroke="#b0b0b0" stroke-linecap="round" d="M34 105h72M34 89h72m-72 8h72M34 73h72m-72 8h72M34 57h72m-72 8h72M34 41h72m-72 8h72M34 25h72m-72 8h72M34 17h72"/></g><g filter="url(#m)"><path fill="#e0e0e0" fill-opacity=".01" d="M54.534 96.31c-.876-.844-.956-2.33-1.76-3.244-.998-1.135-2.675-1.703-3.554-2.947a56 56 0 0 1-2.477-3.852 80 80 0 0 1-2.232-4.07 132 132 0 0 1-2.063-4.218q-.679-1.45-1.344-2.916l-.582-1.284-.433-.96c-.02-.044-.005-.117.044-.204a1 1 0 0 1 .22-.262c.093-.082.196-.148.288-.185s.165-.042.206-.017l.897.563.995.624c-.344.382-.58.7-.608.926-.014.116.033.225.16.225.113 0 .264-.059.408-.114.151-.059.294-.114.377-.096.142.03.377-.03.625-.095q.136-.036.27-.066.474.3.944.602c.05.14.102.264.19.331.078.06.217.056.376.033l.145.094q.47.303.934.61c.083.3.178.606.387.93.09.14.141.31.191.474.074.242.144.469.325.563.12.062.154.21.188.357.046.198.092.395.346.387.16-.006.334-.035.496-.063.257-.044.482-.082.564-.01.154.138.392.163.602.186.252.027.464.05.44.256q-.007.047-.02.114c-.047.23-.12.598.219.734.12.049.307.03.49.011.265-.027.524-.053.56.13.006.028-.022.086-.047.139-.032.067-.06.125-.01.102.143-.067.316-.126.504-.19q.208-.068.433-.154A70 70 0 0 1 53.7 80.9a3.7 3.7 0 0 0-.242.621c-.061.24.01.416.104.643.068.168.147.363.193.632.086.496.421.787.714.905q.092.037.195.074c.26.095.585.213 1.103.525.49.295.831.613 1.087.852.13.122.24.224.334.291.163.115.351.267.54.419.296.238.593.478.798.581q.11.054.241.11c.241.104.533.23.854.477.336.258.465.488.552.77.035.114-.047.315-.132.522-.121.294-.248.6-.05.69a.6.6 0 0 0 .184.035c.13.012.27.025.309.132.013.037-.005.096-.023.154-.02.064-.04.126-.016.157.087.116.19.213.281.299.118.11.217.203.238.297.037.166.2.24.366.314.127.057.255.114.328.214.21.286.638.557 1.144.777.192.084.207.284.227.54.012.16.026.342.085.531.033.107.171.101.299.096.118-.006.227-.01.237.074.01.075-.1.224-.205.366-.116.157-.225.306-.155.332.037.013.133-.015.247-.048q.069-.022.14-.04l-.07.061a.55.55 0 0 0-.183.337q-.014.064-.036.13c-.06.158.02.285.1.366.035.034.023.103.009.183-.013.072-.027.152-.012.225.009.042-.01.097-.027.143-.011.033-.022.061-.018.076.003.012.047-.014.097-.043a1 1 0 0 1 .103-.056c.067-.028.104-.018.101.013 0 .014-.01.033-.02.052-.01.022-.021.044-.02.059.012.067.092.072.176.076.092.005.187.01.199.1a.4.4 0 0 1-.018.114c-.011.043-.022.086-.015.108.027.09.174.067.31.045.09-.014.174-.027.215-.005.075.038.216-.03.32-.08a.4.4 0 0 1 .118-.046q.008.018.015.038c0 .016-.002.032.008.038l.003.001c.02.077.026.164.033.25.015.192.03.383.185.46.033.017.104.003.175-.012.087-.018.177-.037.203.001.062.092.058.243.054.391-.005.224-.01.442.209.445.073 0 .171-.023.27-.047q.085-.022.162-.037-.097.076-.181.145c-.116.094-.215.175-.313.227-.232.123-.542.304-.73.48-.05.048-.11.098-.17.148-.15.126-.302.255-.333.358-.02.069-.06.235.093.183a1 1 0 0 0 .148-.09c.108-.072.236-.159.301-.138l.034.013c.044.02.094.043.184-.012a2 2 0 0 0 .32-.267c.152-.143.332-.313.586-.475.05-.032.077-.033.097-.033.015 0 .026 0 .04-.012s.045-.043.083-.081c.133-.135.365-.371.44-.308.02.017.028.05.035.08.011.043.02.08.063.047l.052-.04.048.083c-.021.073.02.112.073.16l.038.038.094.167a.5.5 0 0 1-.003.212c-.033.177-.144.404-.253.626a8 8 0 0 0-.13.274.14.14 0 0 0-.058-.003c-.138.023-.334.156-.514.279-.12.081-.233.158-.317.195-.155.067-.292.195-.393.29a1 1 0 0 1-.127.106c-.024.015-.043.014-.062.013a.1.1 0 0 0-.056.007c-.267.112-.368.238-.515.422-.08.102-.176.22-.32.364-.155.15-.205.189-.301.21l-.164.296c.015.007.072-.029.165-.09a.44.44 0 0 1 .372-.071c.042.008.078.015.112.007.178-.041.33-.208.463-.356.073-.081.141-.156.205-.2q.039-.031.07-.071.024-.03.053-.06c.147-.13.29-.188.424-.241a1.5 1.5 0 0 0 .362-.192.4.4 0 0 1 .174-.035q.046-.002.098-.009c.046-.007.11-.052.177-.098.047-.033.096-.067.141-.09.081-.04.136-.027.187-.014a.3.3 0 0 0 .066.012q.014 0 .036-.018.14.019.275.031c.45.045.841.083.98.533.026.085.089.145.169.192q.192.393.38.791a1.6 1.6 0 0 0-.197.446c-.064.258.004.406.084.58.06.129.125.273.15.486.04.359.11.703.27 1.02.157.316.366.654.531.877.09.122.076.345.064.553-.018.293-.034.556.243.463.088-.03.224-.102.355-.173.094-.05.186-.099.258-.131q.035.094.072.188c-.062.202-.091.459.17.452l.07.193q.076.205.15.408l.047.134v.002q.05.136.097.272l.041.116q.052.149.103.296l.053.156q.045.128.087.256.07.208.138.415.012.036-.024.1a.5.5 0 0 1-.105.125.5.5 0 0 1-.137.088q-.068.027-.101.011-.195-.094-.391-.192l-.242-.12-.147-.074-.278-.141-.11-.055-.256-.133h-.001l-.126-.065-.383-.202-.204-.109-.113-.061-.062-.033a64 64 0 0 1-2.793-1.597 69 69 0 0 1-1.351-.84c-2.827-1.802-5.538-3.724-8.036-5.836a51 51 0 0 1-2.414-2.178m1.8-16.695c-.964-1.04-1.101-2.678-1.992-3.783-1.105-1.371-2.915-2.21-3.897-3.687a76 76 0 0 1-2.78-4.54 107 107 0 0 1-2.524-4.748 175 175 0 0 1-2.349-4.887 348 348 0 0 1-1.536-3.368 728 728 0 0 1-1.162-2.59c-.023-.051-.01-.129.039-.218a.9.9 0 0 1 .226-.26.9.9 0 0 1 .301-.165c.097-.029.175-.025.22.009l.977.731 1.084.813c-.354.374-.595.691-.617.936-.01.126.044.251.179.267.12.014.28-.03.432-.072.16-.045.31-.087.4-.057.152.051.401.015.663-.023q.144-.022.287-.038.516.39 1.028.781c.06.16.119.303.214.388.086.076.234.089.404.084l.158.122 1.019.788c.099.34.21.688.444 1.07.101.165.163.358.222.544.087.274.17.532.365.658.131.084.173.25.214.416.056.223.112.445.383.468.17.015.356.005.527-.005.273-.014.512-.027.602.063.17.17.424.229.65.28.27.063.497.115.478.338a2 2 0 0 1-.018.122c-.04.246-.107.64.26.833.13.069.33.072.524.075.283.005.558.01.603.215.007.03-.02.09-.045.145-.032.07-.06.13-.008.112.15-.056.333-.098.532-.144q.22-.048.457-.113a95 95 0 0 1 1.613 1.447 3.5 3.5 0 0 0-.237.65c-.057.253.026.456.133.717.078.193.17.417.228.717.109.555.478.917.795 1.084q.1.052.21.106c.28.137.632.309 1.197.718.533.386.908.779 1.19 1.074.144.15.263.276.367.362.178.147.384.337.59.528.325.299.65.6.873.74q.12.073.261.15c.262.146.577.323.928.633.369.327.515.596.617.915.041.13-.04.34-.123.555-.12.307-.244.627-.03.751.05.029.123.045.199.06.139.03.29.063.333.185.016.043-.002.105-.019.166-.019.068-.037.134-.011.17.097.139.21.258.31.364.13.137.24.251.265.356.045.187.222.29.402.392.137.079.276.158.358.277.234.34.7.692 1.248.998.208.117.231.338.261.622.019.177.04.378.109.592.04.122.187.133.323.143.125.01.242.019.256.113.013.082-.1.232-.206.374-.119.158-.23.306-.155.344.04.02.142 0 .262-.021l.15-.026-.075.058c-.137.11-.16.23-.182.346-.01.046-.018.092-.034.137-.06.166.03.316.12.415.037.042.026.115.014.202a.7.7 0 0 0-.004.244c.01.047-.008.105-.024.153-.011.035-.021.065-.017.081.004.014.05-.009.102-.035a1 1 0 0 1 .108-.048c.071-.021.11-.006.11.028q-.003.025-.02.055c-.011.022-.022.045-.02.061.015.076.1.091.19.107.099.017.2.035.216.135a.4.4 0 0 1-.015.122c-.01.046-.02.091-.013.116.033.102.19.096.333.09.096-.003.186-.007.23.022.082.052.23-.004.34-.046.056-.022.103-.04.124-.036l.016.044c0 .017 0 .035.011.043l.003.002c.023.087.033.182.044.277.022.213.045.423.213.529.037.023.11.016.186.009.093-.01.188-.018.217.027.07.108.071.273.072.436.002.244.004.483.238.514.078.01.182-.004.288-.017q.089-.013.171-.02-.101.071-.189.136c-.12.089-.223.164-.326.209-.243.105-.568.264-.762.432a4 4 0 0 1-.176.14c-.156.12-.315.24-.344.349-.02.073-.057.25.105.212a.7.7 0 0 0 .155-.078c.113-.066.246-.145.317-.113l.036.018c.049.028.103.06.197.011.109-.056.212-.146.333-.251.157-.138.343-.3.609-.446.052-.028.08-.025.103-.023.015.002.027.003.041-.008.016-.012.047-.041.086-.078.138-.131.378-.36.46-.28.022.02.031.058.04.091.013.05.023.09.069.06l.054-.038.054.098c-.02.077.025.125.083.185l.043.046.105.195a.6.6 0 0 1 .004.232c-.028.19-.14.424-.248.654q-.07.145-.13.283a.2.2 0 0 0-.061-.01c-.147.007-.352.127-.54.239a2 2 0 0 1-.332.172c-.162.054-.305.176-.41.267a1 1 0 0 1-.13.1c-.027.013-.047.01-.067.006a.1.1 0 0 0-.06.001c-.28.088-.384.214-.535.396-.083.101-.18.22-.33.358-.16.145-.211.181-.314.19l-.165.305c.017.009.077-.023.174-.078a.44.44 0 0 1 .395-.03.3.3 0 0 0 .12.022c.189-.022.345-.186.482-.33.075-.08.145-.153.212-.193q.04-.028.072-.069.025-.03.055-.058c.152-.124.303-.169.444-.21.08-.024.157-.047.229-.084q.033-.016.064-.034a1 1 0 0 1 .087-.045.4.4 0 0 1 .185-.017q.049.004.104.003c.049-.002.115-.043.185-.085.05-.03.101-.06.148-.08.086-.034.145-.012.2.01q.034.014.07.02.015.002.038-.015.15.038.295.07c.483.107.9.2 1.064.71.031.096.1.17.188.232q.219.456.433.915a1.6 1.6 0 0 0-.194.464c-.06.275.018.445.11.647.067.149.143.315.176.552.056.398.142.784.323 1.152.18.367.415.764.599 1.03.1.144.093.388.087.614-.01.319-.018.604.275.538.094-.02.236-.083.374-.143.098-.043.194-.085.27-.11l.083.214c-.058.214-.08.492.198.517l.082.221q.089.234.173.466l.056.154v.001l.113.312.048.132.12.337.062.178.102.292q.082.236.162.473.013.041-.023.106a.5.5 0 0 1-.108.123.5.5 0 0 1-.142.079q-.072.02-.108 0l-.425-.262-.262-.162-.16-.1-.301-.19-.119-.075-.279-.178-.001-.002-.137-.087q-.207-.133-.415-.27l-.222-.146-.124-.081-.066-.045a81 81 0 0 1-3.039-2.11q-.743-.54-1.472-1.094c-3.082-2.339-6.043-4.794-8.784-7.43a68 68 0 0 1-2.654-2.698m12.589-11.947c-.816-.853-.811-2.313-1.553-3.232-.92-1.14-2.543-1.742-3.34-2.987a53 53 0 0 1-2.225-3.847 76 76 0 0 1-1.972-4.054 125 125 0 0 1-1.797-4.195q-.587-1.442-1.16-2.897a614 614 0 0 1-.875-2.23c-.017-.044.001-.115.054-.198.053-.084.135-.174.232-.252s.202-.14.295-.175c.093-.033.165-.036.205-.01l.852.576q.474.319.946.64c-.36.365-.612.67-.652.892-.02.113.02.221.145.225.112.002.265-.05.41-.102.152-.053.296-.103.377-.084.138.034.374-.02.621-.076q.136-.03.272-.058l.896.616c.042.139.086.263.168.33.074.062.212.061.37.043l.138.096q.445.31.887.623c.065.297.14.6.328.924.081.14.123.308.163.47.059.24.115.464.288.561.115.065.14.21.166.356.034.195.068.39.319.388.158 0 .331-.025.492-.048.257-.036.48-.067.557.006.144.139.378.17.584.198.247.034.455.062.419.263q-.009.047-.026.111c-.059.225-.153.585.174.727.117.05.302.037.483.024.264-.02.52-.038.546.143.004.027-.026.083-.054.134-.035.065-.066.122-.017.1.146-.062.32-.115.509-.172q.209-.063.436-.14a67 67 0 0 1 1.388 1.165 3.7 3.7 0 0 0-.274.603c-.074.233-.013.408.066.634.058.166.125.36.155.625.056.49.371.784.654.907l.187.078c.251.1.565.225 1.06.545.466.302.784.624 1.023.865.122.124.223.226.313.295.154.117.332.27.51.425.277.242.557.485.754.592q.105.055.231.114c.232.109.513.241.815.49.318.263.432.493.502.771.028.113-.065.308-.16.51-.136.285-.278.582-.088.676.044.022.11.03.18.038.127.015.265.032.296.138.011.037-.01.094-.031.15-.023.063-.046.124-.025.155.08.116.176.213.261.3.11.112.203.206.218.298.027.164.184.241.343.319.122.059.245.118.312.218.192.286.597.563 1.084.793.185.087.189.284.194.537.002.157.005.336.053.523.027.106.164.104.29.101.116-.001.224-.003.23.08.005.073-.112.217-.223.353-.123.152-.24.295-.172.322.035.014.132-.01.246-.04q.068-.019.142-.036-.045.034-.075.059a.56.56 0 0 0-.198.325q-.016.063-.043.126c-.068.154.003.281.078.363.032.034.016.101-.002.18a.6.6 0 0 0-.024.22c.006.041-.016.095-.035.14-.013.032-.025.059-.022.073s.047-.012.098-.04a1 1 0 0 1 .104-.051c.069-.026.104-.015.1.015a.2.2 0 0 1-.022.05c-.012.022-.025.043-.023.058.007.067.086.073.168.08.09.007.184.015.19.103a.4.4 0 0 1-.024.111c-.013.043-.026.084-.02.106.021.089.168.07.303.053.09-.012.174-.022.213 0 .072.04.215-.023.32-.07.055-.024.1-.044.12-.042l.011.038c-.001.016-.003.032.007.038h.002c.015.077.017.162.018.246.004.19.008.377.157.458.032.017.102.005.173-.008.087-.016.177-.031.2.007.056.091.044.239.032.385-.018.22-.036.433.18.442.072.002.17-.018.27-.04q.084-.018.162-.03-.101.07-.187.137c-.12.089-.222.165-.322.214-.236.115-.551.284-.746.452a5 5 0 0 1-.176.14c-.155.12-.314.243-.35.343-.024.067-.073.229.082.181a1 1 0 0 0 .15-.083c.111-.069.242-.15.306-.128q.015.005.032.014c.043.02.09.044.183-.007.106-.059.21-.149.33-.253.158-.137.346-.299.605-.451.052-.03.078-.03.098-.03.014 0 .025 0 .04-.01.016-.012.047-.041.086-.078.14-.129.382-.355.452-.29.019.017.025.05.03.079.008.043.015.079.06.048l.053-.039.043.084c-.026.07.013.11.062.16l.036.037.083.166a.5.5 0 0 1-.015.209c-.042.172-.165.392-.285.607q-.076.136-.144.266a.14.14 0 0 0-.056-.005c-.138.02-.339.145-.523.26-.123.077-.239.15-.324.183-.157.061-.299.183-.404.273a1 1 0 0 1-.131.102c-.025.014-.044.012-.062.01a.1.1 0 0 0-.056.007c-.27.102-.377.223-.532.4a4 4 0 0 1-.337.349c-.16.143-.212.18-.309.197l-.178.287c.014.007.073-.026.169-.084.17-.103.283-.079.37-.06.041.009.077.016.11.01.179-.036.338-.196.477-.337.077-.078.148-.15.214-.191q.04-.029.073-.068a1 1 0 0 1 .056-.056c.152-.125.297-.178.431-.227a1.6 1.6 0 0 0 .368-.178.4.4 0 0 1 .174-.03q.046 0 .097-.006c.046-.006.111-.048.18-.092a1 1 0 0 1 .145-.084c.082-.038.135-.023.185-.009a.3.3 0 0 0 .064.013q.015.001.036-.016.138.021.27.038c.442.055.825.104.936.549.021.084.08.145.156.193q.168.39.33.786a1.7 1.7 0 0 0-.218.432c-.078.252-.02.4.05.572.051.129.108.271.12.482.02.353.07.692.208 1.008.138.314.325.651.475.874.082.122.056.341.032.545-.035.287-.066.545.213.46.09-.026.227-.093.36-.16.096-.046.19-.091.262-.12l.06.185c-.071.197-.115.448.142.448l.06.192.123.404.04.133v.002l.114.385.085.292.044.155.07.254q.059.206.114.411.007.036-.03.097a.5.5 0 0 1-.11.12.5.5 0 0 1-.14.083q-.069.025-.101.008l-.375-.199-.232-.124-.141-.076-.266-.146-.105-.058-.245-.136-.002-.001-.12-.067-.366-.208-.195-.113-.168-.097a59 59 0 0 1-2.665-1.642q-.65-.425-1.285-.86c-2.688-1.844-5.253-3.803-7.598-5.943a47 47 0 0 1-2.258-2.202m14.467-1.83c-.775-.8-.731-2.21-1.431-3.076-.87-1.075-2.439-1.61-3.184-2.79a47 47 0 0 1-2.073-3.65 68 68 0 0 1-1.819-3.859 113 113 0 0 1-1.643-3.999q-.537-1.376-1.057-2.764l-.456-1.218-.34-.91c-.015-.042.005-.111.06-.194.053-.083.136-.172.233-.25.096-.078.2-.14.292-.176s.163-.04.2-.017l.819.532.907.59c-.362.364-.616.665-.661.881-.023.11.014.214.136.213.109 0 .26-.056.403-.11.15-.055.292-.108.37-.091.135.028.367-.03.61-.092a9 9 0 0 1 .267-.064l.86.57c.037.132.076.25.155.314.07.057.205.052.36.03l.133.089q.426.286.85.576c.055.284.121.576.296.883.075.132.111.294.146.449.052.23.1.445.267.533.11.06.132.2.153.34.027.187.055.374.3.365.155-.006.326-.034.484-.06.251-.043.47-.08.544-.01.137.129.364.153.565.174.241.025.443.046.403.242q-.01.045-.029.108c-.063.218-.165.568.151.697.113.045.294.027.471.009.259-.027.51-.052.53.122.003.026-.028.08-.056.131-.037.064-.068.12-.02.098.145-.065.316-.12.502-.182q.207-.067.43-.148a60 60 0 0 1 1.326 1.086 4 4 0 0 0-.284.59c-.079.227-.023.394.047.61.053.16.113.344.136.599a1 1 0 0 0 .614.858l.181.07c.243.089.547.2 1.02.495.45.279.751.58.978.806.116.116.212.212.299.276.147.109.316.252.486.396.265.225.532.452.721.55q.101.05.223.103c.224.099.495.218.784.45.303.245.409.463.47.73.024.108-.072.3-.17.496-.141.28-.288.572-.105.656.043.02.107.026.175.032.124.011.258.023.286.124.01.036-.013.092-.035.147-.024.06-.047.12-.028.15.075.11.166.201.247.282.105.105.192.193.205.282.022.158.173.227.327.297.117.054.236.108.299.203.18.27.569.526 1.039.734.178.079.176.27.174.513-.001.152-.003.324.038.504.024.101.157.095.28.09.115-.006.22-.01.224.07.002.07-.116.212-.228.347-.124.15-.242.291-.177.316.035.012.13-.015.242-.047l.14-.038q-.045.034-.075.059a.58.58 0 0 0-.202.32q-.018.06-.046.123c-.07.15-.004.271.067.348.03.032.013.097-.007.174-.018.067-.038.144-.03.213.006.04-.018.092-.037.135-.014.032-.026.059-.024.073.002.012.047-.013.097-.042.036-.02.075-.042.104-.053.067-.026.101-.017.096.012a.2.2 0 0 1-.023.05c-.012.02-.025.042-.023.056.004.064.082.068.162.072.088.005.18.01.183.095.001.026-.013.067-.026.107-.015.042-.028.082-.024.103.02.085.163.063.295.042.088-.013.171-.026.209-.006.069.037.21-.028.315-.076.054-.025.098-.045.117-.044l.01.036c-.001.015-.003.03.006.036l.002.001c.013.073.012.155.012.237-.001.183-.003.363.14.437.031.016.1.002.17-.013.086-.017.173-.035.195.001.053.087.037.23.021.371-.024.213-.047.42.165.422.07 0 .167-.022.264-.046q.084-.02.16-.035-.102.073-.187.138a2.3 2.3 0 0 1-.32.217c-.234.117-.547.29-.742.457a5 5 0 0 1-.176.141c-.155.12-.313.243-.35.34-.026.066-.078.224.074.174.033-.01.088-.046.15-.085.11-.07.24-.152.301-.132l.032.012c.04.02.087.04.178-.012.106-.06.21-.15.33-.254.158-.136.346-.298.604-.453.05-.03.077-.03.096-.031.014 0 .025 0 .039-.011q.025-.021.087-.078c.139-.128.382-.353.449-.293.018.016.023.047.027.075.007.042.013.076.057.045l.053-.039.04.08c-.027.069.01.106.056.152l.035.035.076.159a.5.5 0 0 1-.02.201c-.046.168-.171.384-.294.595q-.08.135-.148.26a.1.1 0 0 0-.055-.003c-.136.023-.335.15-.519.267-.122.077-.237.15-.321.186-.155.064-.297.185-.403.275-.054.047-.1.085-.13.102a.1.1 0 0 1-.061.012.1.1 0 0 0-.055.008c-.266.106-.374.227-.53.402a4 4 0 0 1-.34.346c-.16.143-.211.18-.306.2l-.182.282c.014.006.072-.028.167-.086a.45.45 0 0 1 .364-.069.3.3 0 0 0 .107.007c.175-.04.335-.2.475-.34.077-.077.149-.148.214-.19q.04-.029.073-.068.026-.03.056-.056c.152-.124.295-.18.428-.231.076-.03.149-.058.218-.097l.063-.037q.045-.029.083-.048a.4.4 0 0 1 .172-.035 1 1 0 0 0 .095-.008c.044-.007.11-.05.178-.094.048-.032.098-.064.143-.085.082-.04.134-.026.182-.014q.03.009.063.01.012 0 .035-.016.134.016.263.028c.43.042.803.077.9.504.018.08.074.138.148.181q.153.374.301.75a1.7 1.7 0 0 0-.226.424c-.082.246-.029.386.034.551.047.123.099.259.105.461.01.341.049.667.176.968.126.3.3.62.441.831.077.115.045.328.016.525-.041.279-.078.528.197.439.088-.029.224-.098.356-.165.095-.048.187-.094.259-.125l.054.178c-.075.192-.125.436.127.429q.027.092.052.183.056.194.11.387l.036.127v.002q.036.129.07.258l.03.11.076.28.038.148q.032.121.063.244l.1.393q.007.035-.033.095a.6.6 0 0 1-.11.119.6.6 0 0 1-.14.084q-.066.025-.098.01l-.361-.18-.223-.114-.136-.07-.256-.133-.101-.052-.236-.125h-.002q-.058-.032-.116-.062l-.352-.19-.188-.104-.104-.057q-.03-.015-.057-.032a54 54 0 0 1-2.561-1.509 58 58 0 0 1-1.233-.793c-2.578-1.704-5.033-3.522-7.267-5.52a43 43 0 0 1-2.148-2.062"/></g><mask id="n" width="80" height="112" x="30" y="8" maskUnits="userSpaceOnUse" style=""><path fill="#f8f8f8" d="M30 20c0-6.627 5.373-12 12-12h56c6.627 0 12 5.373 12 12v88c0 6.627-5.373 12-12 12H42c-6.627 0-12-5.373-12-12z"/></mask><g mask="url(#n)"><path fill="#864d22" d="M77.618 66.193q.408-.025.817-.015c3.542.09 7 1.13 7.943 4.987 1.148-3.065 3.151-4.452 5.288-4.578q.357-.02.716.004c3.93.273 8.037 4.579 7.966 10.41h.002v4a13.2 13.2 0 0 1-.541 3.532l39.88 37.756 1.795 2.054-1.795 1.946-25.439 25.439-38.607-41.316c-8.002 3.158-15.17-2.289-15.147-7.411l-.012-4h.014a5.2 5.2 0 0 1 .385-1.958C58.59 95.47 57.406 92.747 57.398 90v-4h.002c-.014-4.155 2.658-8.36 8.238-8.7a12 12 0 0 1 1.136-.017q1.278.038 2.736.345l.001-.002v-2.963c-.24-6.139 3.86-8.216 8.107-8.47"/><path fill="#d78f59" d="m75.643 106.412 38.607 41.316 25.439-25.439-41.055-38.868c6.72-12.847-8.175-23.152-12.256-12.256-2.189-8.786-18.736-7.246-17.433 5.558-13.685-1.098-15.184 15.447-5.558 17.433-7.791 5.146 1.476 16.512 12.256 12.256"/><path fill="url(#o)" fill-opacity=".66" d="m75.643 106.412 38.607 41.316 25.439-25.439-41.055-38.868c6.72-12.847-8.175-23.152-12.256-12.256-2.189-8.786-18.736-7.246-17.433 5.558-13.685-1.098-15.184 15.447-5.558 17.433-7.791 5.146 1.476 16.512 12.256 12.256"/><path fill="url(#p)" fill-opacity=".66" d="m75.643 106.412 38.607 41.316 25.439-25.439-41.055-38.868c6.72-12.847-8.175-23.152-12.256-12.256-2.189-8.786-18.736-7.246-17.433 5.558-13.685-1.098-15.184 15.447-5.558 17.433-7.791 5.146 1.476 16.512 12.256 12.256"/></g><path fill="#f6ab4e" d="M22 58h4a4 4 0 0 1 4 4v36a4 4 0 0 0-4-4 4 4 0 0 1-4-4z"/><path fill="#ffc165" d="M22 40h4a4 4 0 0 1 4 4v36-2a4 4 0 0 0-4-4 4 4 0 0 1-4-4z"/><path fill="#ffd28f" d="M22 52V22h4a4 4 0 0 1 4 4v34a4 4 0 0 0-4-4 4 4 0 0 1-4-4"/><path fill="#f8f8f8" d="M22 20a4 4 0 0 1 4-4 4 4 0 0 0 4-4v32a4 4 0 0 0-4-4 4 4 0 0 1-4-4z"/><defs><linearGradient id="a" x1="30" x2="110" y1="120" y2="120" gradientUnits="userSpaceOnUse"><stop offset=".9" stop-color="#d0d0d0"/><stop offset=".95" stop-color="#fff"/><stop offset="1" stop-color="#f0f0f0"/></linearGradient><linearGradient id="b" x1="30" x2="110" y1="118" y2="118" gradientUnits="userSpaceOnUse"><stop offset=".9" stop-color="#d0d0d0"/><stop offset=".95" stop-color="#fff"/><stop offset="1" stop-color="#f0f0f0"/></linearGradient><linearGradient id="c" x1="30" x2="110" y1="116" y2="116" gradientUnits="userSpaceOnUse"><stop offset=".9" stop-color="#d0d0d0"/><stop offset=".95" stop-color="#fff"/><stop offset="1" stop-color="#f0f0f0"/></linearGradient><linearGradient id="d" x1="30" x2="110" y1="114" y2="114" gradientUnits="userSpaceOnUse"><stop offset=".9" stop-color="#d0d0d0"/><stop offset=".95" stop-color="#fff"/><stop offset="1" stop-color="#f0f0f0"/></linearGradient><linearGradient id="e" x1="18" x2="292.5" y1="120" y2="119.998" gradientUnits="userSpaceOnUse"><stop stop-color="#ffb278"/><stop offset=".02" stop-color="#d65c00"/></linearGradient><linearGradient id="f" x1="110" x2="95" y1="11" y2="25" gradientUnits="userSpaceOnUse"><stop stop-color="#f3f3f3"/><stop offset="1" stop-color="#e2e2e2"/></linearGradient><linearGradient id="g" x1="110" x2="95" y1="11" y2="25" gradientUnits="userSpaceOnUse"><stop stop-color="#f3f3f3"/><stop offset="1" stop-color="#e2e2e2"/></linearGradient><linearGradient id="j" x1="78" x2="93" y1="37" y2="23" gradientUnits="userSpaceOnUse"><stop offset=".187" stop-color="#f0f0f0"/><stop offset=".533" stop-color="#e0e0e0"/><stop offset=".624" stop-color="#e0e0e0"/><stop offset="1" stop-color="#f0f0f0"/></linearGradient><filter id="i" width="32" height="34" x="78" y="8" color-interpolation-filters="sRGB" filterUnits="userSpaceOnUse"><feFlood flood-opacity="0" result="BackgroundImageFix"/><feColorMatrix in="SourceAlpha" result="hardAlpha" values="0 0 0 0 0 0 0 0 0 0 0 0 0 0 0 0 0 0 127 0"/><feOffset dy="2"/><feComposite in2="hardAlpha" operator="out"/><feColorMatrix values="0 0 0 0 0.729412 0 0 0 0 0.721569 0 0 0 0 0.717647 0 0 0 1 0"/><feBlend in2="BackgroundImageFix" result="effect1_dropShadow_246_10"/><feBlend in="SourceGraphic" in2="effect1_dropShadow_246_10" result="shape"/></filter><filter id="k" width="4" height="6" x="106" y="40" color-interpolation-filters="sRGB" filterUnits="userSpaceOnUse"><feFlood flood-opacity="0" result="BackgroundImageFix"/><feColorMatrix in="SourceAlpha" result="hardAlpha" values="0 0 0 0 0 0 0 0 0 0 0 0 0 0 0 0 0 0 127 0"/><feOffset dy="2"/><feComposite in2="hardAlpha" operator="out"/><feColorMatrix values="0 0 0 0 0.729412 0 0 0 0 0.721569 0 0 0 0 0.717647 0 0 0 1 0"/><feBlend in2="BackgroundImageFix" result="effect1_dropShadow_246_10"/><feBlend in="SourceGraphic" in2="effect1_dropShadow_246_10" result="shape"/></filter><filter id="m" width="59.032" height="65.033" x="40.081" y="42.92" color-interpolation-filters="sRGB" filterUnits="userSpaceOnUse"><feFlood flood-opacity="0" result="BackgroundImageFix"/><feBlend in="SourceGraphic" in2="BackgroundImageFix" result="shape"/><feColorMatrix in="SourceAlpha" result="hardAlpha" values="0 0 0 0 0 0 0 0 0 0 0 0 0 0 0 0 0 0 127 0"/><feOffset dy="1"/><feComposite in2="hardAlpha" k2="-1" k3="1" operator="arithmetic"/><feColorMatrix values="0 0 0 0 0 0 0 0 0 0 0 0 0 0 0 0 0 0 0.25 0"/><feBlend in2="shape" result="effect1_innerShadow_246_10"/></filter><radialGradient id="o" cx="0" cy="0" r="1" gradientTransform="matrix(0 29 -61.2773 0 76.484 66)" gradientUnits="userSpaceOnUse"><stop stop-color="#ffba86"/><stop offset="1" stop-color="#ffba86" stop-opacity="0"/></radialGradient><radialGradient id="p" cx="0" cy="0" r="1" gradientTransform="rotate(225 69.474 43.275)scale(28.2843 12.5073)" gradientUnits="userSpaceOnUse"><stop stop-color="#864d22"/><stop offset="1" stop-color="#864d22" stop-opacity="0"/></radialGradient></defs></svg>