<?xml version="1.0" encoding="UTF-8" standalone="no"?>
<svg
   width="32"
   height="38"
   fill="none"
   viewBox="0 0 32 38"
   version="1.1"
   id="svg59"
   sodipodi:docname="page-corner.svg"
   inkscape:version="1.4.2 (ebf0e940d0, 2025-05-08)"
   xmlns:inkscape="http://www.inkscape.org/namespaces/inkscape"
   xmlns:sodipodi="http://sodipodi.sourceforge.net/DTD/sodipodi-0.dtd"
   xmlns="http://www.w3.org/2000/svg"
   xmlns:svg="http://www.w3.org/2000/svg">
  <sodipodi:namedview
     id="namedview59"
     pagecolor="#ffffff"
     bordercolor="#000000"
     borderopacity="0.25"
     inkscape:showpageshadow="2"
     inkscape:pageopacity="0.0"
     inkscape:pagecheckerboard="0"
     inkscape:deskcolor="#d1d1d1"
     inkscape:zoom="10.610204"
     inkscape:cx="24.646085"
     inkscape:cy="21.959992"
     inkscape:window-width="1920"
     inkscape:window-height="1043"
     inkscape:window-x="0"
     inkscape:window-y="0"
     inkscape:window-maximized="1"
     inkscape:current-layer="svg59" />
  <path
     fill="url(#f)"
     d="m 0,0 h 20 c 6.627,0 12,5.373 12,12 v 20 z"
     id="path12"
     style="display:inline;fill:url(#f)" />
  <mask
     id="h"
     width="32"
     height="32"
     x="78"
     y="8"
     maskUnits="userSpaceOnUse">
    <path
       fill="url(#g)"
       d="m 78,8 h 20 c 6.627,0 12,5.373 12,12 v 20 z"
       id="path13" />
  </mask>
  <g
     mask="url(#h)"
     id="g14"
     style="display:inline"
     transform="translate(-78,-8)">
    <path
       stroke="#c8c8c8"
       stroke-linecap="round"
       d="m 34,105 h 72 M 34,89 h 72 m -72,8 h 72 M 34,73 h 72 m -72,8 h 72 M 34,57 h 72 m -72,8 h 72 M 34,41 h 72 m -72,8 h 72 M 34,25 h 72 m -72,8 h 72 M 34,17 h 72"
       id="path14" />
  </g>
  <g
     filter="url(#i)"
     id="g15"
     style="display:inline"
     transform="translate(-78,-8)">
    <path
       fill="url(#j)"
       d="M 110,40 H 90 C 83.373,40 78,34.627 78,28 V 8 Z"
       id="path15"
       style="fill:url(#j)" />
  </g>
  <g
     filter="url(#k)"
     id="g16"
     style="display:inline"
     transform="translate(-78,-8)">
    <path
       fill="#eeeeee"
       d="m 110,44 a 4,4 0 0 0 -4,-4 h 4 z"
       id="path16" />
  </g>
  <mask
     id="l"
     width="60"
     height="66"
     x="40"
     y="42"
     maskUnits="userSpaceOnUse">
    <path
       fill="#b0b0b0"
       d="m 54.534,96.308 c -0.876,-0.845 -0.956,-2.33 -1.76,-3.244 -0.998,-1.135 -2.675,-1.703 -3.554,-2.947 a 56,56 0 0 1 -2.477,-3.852 80,80 0 0 1 -2.232,-4.07 132,132 0 0 1 -2.063,-4.218 q -0.679,-1.451 -1.344,-2.916 a 593,593 0 0 1 -1.015,-2.244 c -0.02,-0.044 -0.005,-0.117 0.044,-0.204 0.049,-0.087 0.126,-0.18 0.22,-0.262 0.093,-0.083 0.196,-0.148 0.288,-0.186 0.092,-0.037 0.165,-0.042 0.206,-0.016 l 0.897,0.562 0.995,0.625 c -0.344,0.382 -0.58,0.699 -0.608,0.926 -0.014,0.116 0.033,0.225 0.16,0.225 0.113,0 0.264,-0.059 0.408,-0.115 0.151,-0.058 0.294,-0.113 0.377,-0.096 0.142,0.03 0.377,-0.03 0.625,-0.094 q 0.136,-0.036 0.27,-0.067 0.474,0.3 0.944,0.603 c 0.05,0.14 0.102,0.264 0.19,0.331 0.078,0.06 0.217,0.055 0.376,0.033 l 0.145,0.094 q 0.47,0.303 0.934,0.61 c 0.083,0.299 0.178,0.606 0.387,0.93 0.09,0.14 0.141,0.31 0.191,0.474 0.074,0.241 0.144,0.469 0.325,0.562 0.12,0.063 0.154,0.21 0.188,0.358 0.046,0.198 0.092,0.395 0.346,0.386 0.16,-0.005 0.334,-0.035 0.496,-0.062 0.257,-0.044 0.482,-0.082 0.564,-0.01 0.154,0.137 0.392,0.163 0.602,0.186 0.252,0.027 0.464,0.05 0.44,0.256 q -0.007,0.047 -0.02,0.114 c -0.047,0.23 -0.12,0.598 0.219,0.734 0.12,0.049 0.307,0.03 0.49,0.011 0.265,-0.027 0.524,-0.053 0.56,0.13 0.006,0.028 -0.022,0.086 -0.047,0.138 -0.032,0.068 -0.06,0.126 -0.01,0.103 0.143,-0.067 0.316,-0.126 0.504,-0.19 q 0.208,-0.069 0.433,-0.154 a 69,69 0 0 1 1.473,1.147 3.7,3.7 0 0 0 -0.242,0.62 c -0.061,0.24 0.01,0.417 0.103,0.644 0.069,0.168 0.148,0.363 0.194,0.631 0.085,0.497 0.421,0.788 0.714,0.906 q 0.092,0.037 0.195,0.073 c 0.26,0.096 0.585,0.214 1.103,0.526 0.49,0.295 0.831,0.613 1.087,0.852 0.13,0.122 0.24,0.224 0.334,0.291 0.163,0.115 0.351,0.267 0.54,0.419 0.296,0.238 0.593,0.478 0.798,0.58 0.073,0.038 0.154,0.072 0.241,0.11 0.241,0.105 0.533,0.232 0.854,0.478 0.336,0.258 0.465,0.488 0.552,0.77 0.035,0.113 -0.047,0.314 -0.132,0.522 -0.121,0.294 -0.248,0.6 -0.05,0.69 a 0.6,0.6 0 0 0 0.184,0.034 c 0.13,0.012 0.27,0.025 0.309,0.132 0.013,0.037 -0.005,0.097 -0.023,0.155 -0.02,0.064 -0.04,0.126 -0.016,0.157 0.087,0.116 0.19,0.213 0.281,0.298 0.118,0.111 0.217,0.204 0.238,0.297 0.037,0.167 0.2,0.24 0.366,0.315 0.127,0.057 0.255,0.114 0.328,0.214 0.21,0.285 0.638,0.557 1.144,0.777 0.192,0.083 0.207,0.284 0.227,0.54 0.012,0.16 0.026,0.342 0.084,0.531 0.034,0.107 0.172,0.1 0.3,0.095 0.118,-0.005 0.227,-0.01 0.237,0.075 0.01,0.075 -0.1,0.224 -0.205,0.365 -0.116,0.158 -0.225,0.307 -0.155,0.332 0.037,0.014 0.133,-0.014 0.247,-0.048 l 0.14,-0.04 -0.07,0.062 a 0.55,0.55 0 0 0 -0.183,0.336 q -0.014,0.066 -0.036,0.13 c -0.06,0.158 0.02,0.286 0.1,0.367 0.035,0.034 0.023,0.103 0.009,0.183 -0.013,0.071 -0.027,0.152 -0.012,0.225 0.009,0.042 -0.01,0.097 -0.027,0.142 -0.012,0.034 -0.022,0.062 -0.018,0.076 0.003,0.013 0.047,-0.013 0.097,-0.043 a 1,1 0 0 1 0.103,-0.056 c 0.067,-0.027 0.104,-0.018 0.101,0.014 0,0.014 -0.01,0.033 -0.02,0.052 -0.01,0.022 -0.022,0.044 -0.02,0.059 0.012,0.067 0.092,0.072 0.176,0.076 0.092,0.005 0.187,0.01 0.199,0.1 a 0.4,0.4 0 0 1 -0.018,0.113 c -0.011,0.044 -0.022,0.087 -0.015,0.109 0.027,0.09 0.174,0.066 0.31,0.045 0.09,-0.014 0.174,-0.027 0.215,-0.006 0.075,0.04 0.216,-0.029 0.32,-0.079 0.054,-0.026 0.099,-0.048 0.118,-0.047 l 0.015,0.039 c -0.001,0.016 -0.002,0.032 0.008,0.038 l 0.003,0.001 c 0.02,0.077 0.026,0.163 0.033,0.25 0.015,0.192 0.03,0.382 0.185,0.46 0.033,0.017 0.104,0.002 0.175,-0.012 0.087,-0.018 0.177,-0.037 0.203,0.001 0.062,0.091 0.058,0.242 0.054,0.39 -0.005,0.225 -0.01,0.443 0.209,0.445 0.073,0.001 0.171,-0.022 0.27,-0.047 q 0.085,-0.021 0.162,-0.036 -0.097,0.076 -0.181,0.145 a 2,2 0 0 1 -0.313,0.227 c -0.232,0.123 -0.542,0.304 -0.73,0.48 a 4,4 0 0 1 -0.17,0.148 c -0.15,0.126 -0.302,0.255 -0.333,0.358 -0.02,0.069 -0.06,0.235 0.093,0.182 0.034,-0.011 0.088,-0.048 0.148,-0.088 0.108,-0.074 0.236,-0.16 0.301,-0.14 l 0.034,0.014 c 0.044,0.02 0.094,0.043 0.184,-0.012 0.104,-0.063 0.204,-0.157 0.32,-0.267 0.152,-0.143 0.332,-0.313 0.586,-0.476 0.05,-0.032 0.077,-0.032 0.097,-0.032 0.015,0 0.026,0 0.04,-0.012 0.014,-0.012 0.045,-0.043 0.083,-0.081 0.133,-0.135 0.365,-0.371 0.44,-0.308 0.02,0.017 0.028,0.05 0.035,0.08 0.01,0.043 0.02,0.08 0.063,0.047 l 0.052,-0.04 0.048,0.083 c -0.021,0.073 0.02,0.112 0.073,0.16 l 0.038,0.038 0.094,0.167 a 0.5,0.5 0 0 1 -0.003,0.212 c -0.033,0.177 -0.144,0.404 -0.253,0.626 a 8,8 0 0 0 -0.13,0.274 0.14,0.14 0 0 0 -0.058,-0.003 c -0.138,0.023 -0.334,0.156 -0.514,0.279 -0.12,0.081 -0.233,0.158 -0.317,0.194 -0.155,0.067 -0.292,0.195 -0.393,0.29 a 1,1 0 0 1 -0.127,0.107 0.1,0.1 0 0 1 -0.062,0.012 0.1,0.1 0 0 0 -0.056,0.008 c -0.267,0.112 -0.368,0.238 -0.515,0.422 -0.08,0.101 -0.176,0.22 -0.32,0.364 -0.155,0.15 -0.205,0.189 -0.301,0.209 l -0.164,0.297 c 0.015,0.007 0.072,-0.029 0.165,-0.09 a 0.44,0.44 0 0 1 0.372,-0.071 0.3,0.3 0 0 0 0.112,0.007 c 0.178,-0.041 0.33,-0.209 0.463,-0.356 0.073,-0.081 0.141,-0.156 0.205,-0.2 q 0.039,-0.03 0.07,-0.072 a 1,1 0 0 1 0.053,-0.058 c 0.147,-0.131 0.29,-0.189 0.424,-0.243 0.076,-0.03 0.149,-0.06 0.217,-0.1 l 0.062,-0.04 a 0.402,0.402 0 0 1 0.257,-0.087 1,1 0 0 0 0.098,-0.008 c 0.046,-0.007 0.11,-0.052 0.177,-0.099 0.047,-0.033 0.096,-0.066 0.141,-0.09 0.081,-0.04 0.136,-0.026 0.187,-0.013 q 0.033,0.01 0.066,0.012 0.014,0 0.036,-0.018 0.14,0.018 0.275,0.03 c 0.45,0.046 0.841,0.084 0.98,0.534 0.025,0.085 0.088,0.145 0.169,0.192 q 0.192,0.393 0.38,0.79 a 1.7,1.7 0 0 0 -0.197,0.446 c -0.064,0.259 0.004,0.407 0.084,0.581 0.06,0.129 0.125,0.272 0.15,0.486 0.04,0.359 0.11,0.703 0.27,1.02 0.157,0.316 0.366,0.654 0.531,0.877 0.09,0.121 0.076,0.345 0.064,0.553 -0.018,0.293 -0.034,0.556 0.243,0.463 a 3,3 0 0 0 0.355,-0.173 c 0.094,-0.05 0.186,-0.099 0.258,-0.131 l 0.071,0.187 c -0.06,0.203 -0.09,0.46 0.17,0.453 q 0.038,0.097 0.072,0.193 a 30,30 0 0 1 0.196,0.542 v 10e-4 l 0.097,0.273 0.041,0.116 q 0.052,0.148 0.103,0.295 l 0.053,0.157 q 0.045,0.127 0.087,0.256 0.07,0.207 0.138,0.415 0.012,0.036 -0.024,0.1 a 0.55,0.55 0 0 1 -0.241,0.213 q -0.068,0.026 -0.102,0.011 -0.195,-0.095 -0.391,-0.192 l -0.242,-0.12 -0.147,-0.074 -0.278,-0.141 -0.11,-0.055 -0.256,-0.133 -10e-4,-0.001 -0.126,-0.065 a 39,39 0 0 1 -0.587,-0.31 l -0.113,-0.061 -0.062,-0.034 a 60,60 0 0 1 -2.793,-1.597 65,65 0 0 1 -1.351,-0.839 c -2.827,-1.802 -5.538,-3.725 -8.036,-5.836 a 50,50 0 0 1 -2.414,-2.179 m 1.8,-16.696 C 55.37,78.574 55.233,76.935 54.342,75.83 53.237,74.458 51.427,73.62 50.445,72.143 a 76,76 0 0 1 -2.78,-4.54 107,107 0 0 1 -2.524,-4.748 175,175 0 0 1 -2.349,-4.887 349,349 0 0 1 -1.536,-3.369 Q 40.922,53.859 40.59,53.117 L 40.094,52.01 c -0.023,-0.051 -0.01,-0.13 0.039,-0.218 a 0.9,0.9 0 0 1 0.226,-0.26 0.9,0.9 0 0 1 0.301,-0.165 c 0.097,-0.03 0.175,-0.025 0.22,0.008 l 0.977,0.732 1.084,0.812 c -0.354,0.375 -0.595,0.692 -0.617,0.937 -0.01,0.125 0.044,0.25 0.179,0.267 0.12,0.014 0.28,-0.03 0.432,-0.073 0.16,-0.044 0.31,-0.086 0.4,-0.056 0.152,0.05 0.401,0.015 0.663,-0.023 a 8,8 0 0 1 0.287,-0.038 l 1.028,0.78 c 0.06,0.16 0.119,0.304 0.214,0.389 0.086,0.076 0.234,0.088 0.404,0.084 l 0.158,0.122 q 0.51,0.392 1.019,0.788 c 0.099,0.339 0.21,0.688 0.444,1.07 0.101,0.165 0.163,0.358 0.222,0.544 0.087,0.274 0.17,0.532 0.365,0.658 0.131,0.084 0.173,0.25 0.214,0.416 0.056,0.223 0.112,0.445 0.383,0.468 0.17,0.014 0.356,0.004 0.527,-0.005 0.273,-0.014 0.512,-0.027 0.602,0.063 0.17,0.17 0.424,0.228 0.65,0.28 0.27,0.063 0.497,0.115 0.478,0.337 q -0.005,0.052 -0.018,0.122 c -0.04,0.247 -0.107,0.641 0.26,0.834 0.13,0.068 0.33,0.072 0.524,0.075 0.283,0.004 0.558,0.009 0.603,0.215 0.007,0.03 -0.02,0.09 -0.046,0.145 -0.031,0.07 -0.059,0.13 -0.008,0.111 0.151,-0.055 0.334,-0.097 0.533,-0.143 q 0.22,-0.05 0.457,-0.114 a 94,94 0 0 1 1.613,1.448 3.5,3.5 0 0 0 -0.237,0.649 c -0.057,0.254 0.026,0.457 0.133,0.718 0.078,0.192 0.17,0.417 0.228,0.717 0.109,0.555 0.477,0.917 0.795,1.084 q 0.1,0.052 0.21,0.105 c 0.28,0.138 0.632,0.31 1.197,0.718 0.533,0.387 0.908,0.78 1.19,1.074 0.144,0.151 0.263,0.276 0.367,0.362 0.178,0.147 0.384,0.338 0.59,0.529 0.325,0.299 0.65,0.6 0.873,0.74 q 0.12,0.072 0.261,0.15 c 0.262,0.146 0.577,0.322 0.928,0.633 0.369,0.326 0.515,0.596 0.617,0.915 0.041,0.13 -0.04,0.339 -0.123,0.555 -0.12,0.307 -0.244,0.627 -0.03,0.75 a 0.7,0.7 0 0 0 0.199,0.062 c 0.139,0.03 0.29,0.062 0.333,0.184 0.016,0.042 -0.002,0.105 -0.019,0.166 -0.019,0.067 -0.037,0.133 -0.011,0.17 0.097,0.139 0.21,0.258 0.31,0.364 0.13,0.136 0.24,0.25 0.265,0.356 0.045,0.187 0.222,0.289 0.402,0.392 0.137,0.078 0.276,0.157 0.358,0.276 0.234,0.34 0.7,0.692 1.248,1 0.208,0.115 0.231,0.337 0.261,0.62 0.019,0.177 0.04,0.378 0.109,0.593 0.04,0.122 0.187,0.133 0.323,0.143 0.125,0.01 0.242,0.018 0.256,0.112 0.012,0.083 -0.1,0.233 -0.206,0.374 -0.119,0.158 -0.23,0.307 -0.155,0.344 0.04,0.02 0.142,0.001 0.262,-0.02 l 0.15,-0.026 q -0.046,0.034 -0.075,0.058 c -0.137,0.11 -0.16,0.229 -0.182,0.345 -0.01,0.047 -0.018,0.093 -0.034,0.138 -0.06,0.165 0.03,0.316 0.12,0.415 0.037,0.041 0.026,0.115 0.014,0.201 -0.01,0.077 -0.023,0.163 -0.004,0.245 0.01,0.047 -0.008,0.105 -0.024,0.153 -0.011,0.035 -0.021,0.064 -0.017,0.08 0.004,0.015 0.05,-0.008 0.102,-0.034 a 1,1 0 0 1 0.108,-0.048 c 0.071,-0.022 0.11,-0.006 0.11,0.028 q -0.003,0.024 -0.02,0.054 c -0.011,0.023 -0.022,0.046 -0.02,0.062 0.015,0.076 0.1,0.09 0.19,0.106 0.099,0.018 0.2,0.036 0.216,0.136 a 0.4,0.4 0 0 1 -0.015,0.122 c -0.01,0.046 -0.02,0.091 -0.013,0.116 0.033,0.102 0.19,0.096 0.333,0.09 0.096,-0.004 0.186,-0.007 0.23,0.021 0.082,0.053 0.23,-0.004 0.34,-0.045 0.056,-0.022 0.103,-0.04 0.124,-0.036 l 0.016,0.044 c 0,0.017 0,0.035 0.011,0.043 l 0.003,0.001 c 0.023,0.087 0.033,0.182 0.044,0.277 0.022,0.213 0.045,0.424 0.213,0.53 0.037,0.022 0.11,0.015 0.186,0.008 0.093,-0.008 0.188,-0.017 0.217,0.028 0.07,0.108 0.071,0.273 0.072,0.435 0.002,0.245 0.004,0.483 0.238,0.514 0.078,0.01 0.182,-0.003 0.288,-0.017 q 0.089,-0.012 0.171,-0.018 -0.101,0.07 -0.189,0.135 a 1.8,1.8 0 0 1 -0.326,0.208 c -0.243,0.106 -0.568,0.264 -0.762,0.432 a 4,4 0 0 1 -0.176,0.14 c -0.156,0.12 -0.315,0.241 -0.344,0.35 -0.02,0.073 -0.057,0.25 0.105,0.212 0.036,-0.008 0.092,-0.042 0.155,-0.078 0.113,-0.067 0.246,-0.145 0.317,-0.114 l 0.036,0.019 c 0.049,0.028 0.103,0.06 0.197,0.01 0.109,-0.055 0.212,-0.145 0.333,-0.25 0.157,-0.138 0.343,-0.3 0.609,-0.446 0.052,-0.029 0.08,-0.026 0.103,-0.023 0.015,0.002 0.027,0.003 0.041,-0.008 0.016,-0.012 0.047,-0.041 0.086,-0.078 0.138,-0.131 0.378,-0.36 0.46,-0.281 0.022,0.021 0.031,0.058 0.04,0.092 0.013,0.049 0.023,0.09 0.069,0.06 l 0.054,-0.038 0.054,0.098 c -0.02,0.077 0.025,0.125 0.083,0.185 l 0.043,0.046 0.105,0.195 a 0.6,0.6 0 0 1 0.004,0.232 c -0.028,0.19 -0.14,0.424 -0.248,0.653 q -0.07,0.146 -0.13,0.284 a 0.2,0.2 0 0 0 -0.061,-0.011 c -0.147,0.008 -0.352,0.128 -0.54,0.24 -0.125,0.073 -0.243,0.143 -0.332,0.172 -0.162,0.053 -0.305,0.176 -0.41,0.266 a 1,1 0 0 1 -0.13,0.101 c -0.027,0.013 -0.047,0.01 -0.067,0.006 a 0.1,0.1 0 0 0 -0.06,10e-4 c -0.28,0.088 -0.384,0.214 -0.535,0.396 -0.083,0.1 -0.18,0.219 -0.33,0.358 -0.16,0.144 -0.211,0.18 -0.314,0.19 l -0.165,0.304 c 0.017,0.01 0.077,-0.022 0.174,-0.077 0.175,-0.098 0.299,-0.06 0.395,-0.03 a 0.3,0.3 0 0 0 0.12,0.022 c 0.189,-0.022 0.345,-0.186 0.482,-0.33 0.075,-0.08 0.145,-0.153 0.212,-0.194 a 0.3,0.3 0 0 0 0.072,-0.068 q 0.025,-0.03 0.055,-0.058 c 0.152,-0.124 0.303,-0.17 0.444,-0.21 0.08,-0.025 0.157,-0.048 0.229,-0.084 q 0.033,-0.016 0.064,-0.035 a 1,1 0 0 1 0.087,-0.045 0.4,0.4 0 0 1 0.185,-0.017 q 0.049,0.005 0.104,0.004 c 0.048,-0.002 0.115,-0.043 0.185,-0.085 0.05,-0.03 0.101,-0.061 0.148,-0.08 0.086,-0.034 0.145,-0.012 0.2,0.009 q 0.034,0.014 0.07,0.021 0.015,0.002 0.038,-0.015 0.15,0.038 0.295,0.07 c 0.483,0.106 0.9,0.199 1.064,0.71 0.031,0.096 0.1,0.17 0.188,0.232 q 0.219,0.455 0.433,0.915 a 1.6,1.6 0 0 0 -0.194,0.463 c -0.06,0.275 0.018,0.446 0.11,0.648 0.067,0.148 0.143,0.314 0.176,0.551 0.056,0.399 0.142,0.785 0.323,1.153 0.18,0.367 0.414,0.763 0.599,1.03 0.1,0.144 0.093,0.387 0.087,0.614 -0.01,0.318 -0.018,0.604 0.275,0.538 a 2.6,2.6 0 0 0 0.374,-0.144 c 0.098,-0.042 0.194,-0.084 0.27,-0.11 l 0.083,0.215 c -0.058,0.213 -0.08,0.491 0.198,0.517 l 0.082,0.22 q 0.089,0.234 0.173,0.467 l 0.056,0.154 v 10e-4 l 0.113,0.311 0.048,0.133 0.12,0.336 0.062,0.179 0.102,0.292 q 0.082,0.235 0.162,0.472 0.013,0.04 -0.023,0.107 a 0.5,0.5 0 0 1 -0.108,0.123 0.5,0.5 0 0 1 -0.142,0.079 q -0.072,0.02 -0.108,-0.001 l -0.425,-0.26 -0.262,-0.163 -0.16,-0.1 -0.301,-0.19 -0.119,-0.076 q -0.14,-0.088 -0.279,-0.178 H 73.247 Q 73.178,93.529 73.11,93.487 l -0.415,-0.27 -0.222,-0.146 -0.124,-0.081 -0.066,-0.045 a 81,81 0 0 1 -3.039,-2.11 q -0.743,-0.54 -1.472,-1.094 c -3.082,-2.34 -6.043,-4.795 -8.784,-7.43 A 68,68 0 0 1 56.334,79.612 M 68.923,67.665 c -0.816,-0.853 -0.812,-2.313 -1.553,-3.232 -0.92,-1.14 -2.543,-1.742 -3.34,-2.987 a 53,53 0 0 1 -2.225,-3.847 76,76 0 0 1 -1.972,-4.054 126,126 0 0 1 -1.797,-4.195 251,251 0 0 1 -1.16,-2.897 l -0.502,-1.276 -0.373,-0.953 c -0.017,-0.045 0.001,-0.116 0.054,-0.2 0.053,-0.084 0.135,-0.173 0.232,-0.252 0.097,-0.078 0.202,-0.14 0.295,-0.174 0.093,-0.034 0.165,-0.036 0.205,-0.01 l 0.852,0.576 q 0.474,0.319 0.946,0.64 c -0.36,0.365 -0.612,0.67 -0.652,0.892 -0.02,0.113 0.02,0.221 0.145,0.225 0.112,0.002 0.265,-0.05 0.41,-0.102 0.152,-0.053 0.296,-0.103 0.377,-0.084 0.138,0.034 0.374,-0.02 0.621,-0.076 q 0.136,-0.03 0.272,-0.058 l 0.896,0.616 c 0.042,0.139 0.086,0.263 0.168,0.33 0.074,0.062 0.212,0.061 0.37,0.043 l 0.138,0.096 q 0.445,0.31 0.887,0.623 c 0.065,0.297 0.14,0.6 0.328,0.924 0.08,0.14 0.123,0.308 0.163,0.47 0.059,0.24 0.115,0.464 0.288,0.56 0.115,0.066 0.14,0.212 0.166,0.357 0.034,0.195 0.068,0.39 0.319,0.388 0.158,0 0.331,-0.025 0.492,-0.048 0.257,-0.036 0.48,-0.067 0.557,0.006 0.144,0.139 0.378,0.17 0.584,0.198 0.247,0.034 0.455,0.062 0.419,0.263 q -0.009,0.046 -0.026,0.111 c -0.059,0.225 -0.153,0.585 0.174,0.727 0.117,0.05 0.302,0.037 0.483,0.024 0.264,-0.02 0.52,-0.038 0.546,0.143 0.004,0.027 -0.026,0.083 -0.054,0.134 -0.035,0.065 -0.066,0.122 -0.017,0.1 0.146,-0.062 0.32,-0.115 0.508,-0.172 q 0.211,-0.063 0.437,-0.14 a 67,67 0 0 1 1.388,1.165 3.7,3.7 0 0 0 -0.274,0.603 c -0.074,0.233 -0.013,0.408 0.066,0.634 0.058,0.166 0.125,0.36 0.155,0.624 0.056,0.49 0.371,0.785 0.654,0.908 l 0.187,0.078 c 0.251,0.1 0.565,0.225 1.06,0.545 0.466,0.302 0.784,0.624 1.023,0.865 0.122,0.124 0.223,0.226 0.313,0.295 0.154,0.117 0.332,0.27 0.51,0.425 0.277,0.242 0.557,0.485 0.754,0.592 q 0.105,0.055 0.231,0.114 c 0.232,0.109 0.513,0.24 0.815,0.49 0.318,0.263 0.432,0.493 0.502,0.771 0.028,0.113 -0.065,0.308 -0.16,0.51 -0.136,0.285 -0.278,0.582 -0.088,0.676 a 0.6,0.6 0 0 0 0.18,0.038 c 0.127,0.015 0.265,0.032 0.296,0.138 0.011,0.037 -0.01,0.094 -0.031,0.15 -0.023,0.063 -0.046,0.123 -0.025,0.155 0.08,0.116 0.176,0.213 0.261,0.3 0.11,0.112 0.202,0.206 0.218,0.298 0.027,0.164 0.184,0.241 0.343,0.319 0.122,0.059 0.245,0.118 0.312,0.218 0.192,0.286 0.597,0.563 1.084,0.793 0.185,0.087 0.189,0.284 0.194,0.537 0.002,0.157 0.005,0.336 0.053,0.523 0.027,0.106 0.163,0.104 0.29,0.101 0.116,-0.002 0.224,-0.003 0.23,0.08 0.005,0.073 -0.112,0.217 -0.223,0.353 -0.123,0.152 -0.24,0.295 -0.172,0.322 0.035,0.014 0.132,-0.01 0.246,-0.04 q 0.068,-0.019 0.142,-0.036 l -0.075,0.058 a 0.56,0.56 0 0 0 -0.198,0.326 q -0.016,0.063 -0.043,0.126 c -0.068,0.154 0.003,0.281 0.078,0.363 0.032,0.034 0.016,0.101 -0.002,0.18 -0.016,0.07 -0.035,0.148 -0.024,0.22 0.006,0.041 -0.016,0.095 -0.035,0.14 -0.013,0.031 -0.025,0.059 -0.022,0.073 0.003,0.014 0.047,-0.012 0.098,-0.04 0.036,-0.02 0.076,-0.041 0.104,-0.052 0.069,-0.025 0.104,-0.014 0.1,0.016 a 0.2,0.2 0 0 1 -0.022,0.05 c -0.012,0.022 -0.025,0.043 -0.023,0.058 0.007,0.067 0.086,0.073 0.168,0.08 0.09,0.007 0.184,0.015 0.19,0.103 0.002,0.028 -0.01,0.07 -0.024,0.111 -0.013,0.043 -0.026,0.084 -0.02,0.106 0.021,0.088 0.168,0.07 0.303,0.053 0.09,-0.012 0.174,-0.022 0.213,0 0.072,0.04 0.215,-0.023 0.32,-0.07 0.055,-0.024 0.1,-0.044 0.12,-0.042 l 0.011,0.038 c -10e-4,0.015 -0.003,0.032 0.007,0.038 h 0.002 c 0.015,0.077 0.017,0.162 0.018,0.246 0.004,0.19 0.008,0.377 0.157,0.458 0.032,0.017 0.102,0.005 0.173,-0.008 0.087,-0.016 0.177,-0.031 0.2,0.007 0.056,0.091 0.044,0.239 0.032,0.385 -0.018,0.22 -0.036,0.433 0.18,0.442 0.072,0.002 0.17,-0.018 0.27,-0.04 q 0.084,-0.018 0.162,-0.03 l -0.187,0.137 a 2,2 0 0 1 -0.322,0.214 c -0.236,0.115 -0.551,0.284 -0.746,0.452 a 4,4 0 0 1 -0.176,0.14 c -0.155,0.12 -0.314,0.243 -0.35,0.343 -0.024,0.067 -0.073,0.229 0.082,0.181 0.034,-0.01 0.089,-0.044 0.15,-0.083 0.111,-0.069 0.242,-0.15 0.306,-0.128 q 0.015,0.006 0.032,0.014 c 0.043,0.02 0.09,0.044 0.183,-0.007 0.106,-0.06 0.21,-0.149 0.33,-0.254 0.158,-0.136 0.346,-0.298 0.605,-0.45 0.052,-0.03 0.078,-0.03 0.098,-0.03 0.014,0 0.025,0 0.04,-0.01 0.016,-0.012 0.047,-0.041 0.086,-0.078 0.14,-0.129 0.382,-0.355 0.452,-0.29 0.019,0.017 0.025,0.05 0.03,0.079 0.008,0.043 0.015,0.079 0.06,0.048 l 0.053,-0.039 0.043,0.084 c -0.026,0.07 0.013,0.11 0.062,0.16 l 0.036,0.037 0.083,0.166 a 0.5,0.5 0 0 1 -0.015,0.209 c -0.042,0.172 -0.165,0.392 -0.285,0.607 q -0.076,0.136 -0.144,0.266 a 0.13,0.13 0 0 0 -0.056,-0.005 c -0.138,0.02 -0.339,0.145 -0.523,0.26 -0.123,0.077 -0.239,0.15 -0.324,0.183 -0.157,0.061 -0.3,0.183 -0.404,0.273 a 1,1 0 0 1 -0.131,0.102 0.1,0.1 0 0 1 -0.062,0.01 0.1,0.1 0 0 0 -0.056,0.007 c -0.27,0.102 -0.377,0.223 -0.532,0.4 a 4,4 0 0 1 -0.337,0.349 c -0.16,0.143 -0.212,0.18 -0.309,0.197 l -0.178,0.287 c 0.014,0.007 0.073,-0.026 0.169,-0.084 a 0.44,0.44 0 0 1 0.37,-0.06 c 0.041,0.009 0.077,0.016 0.11,0.01 0.179,-0.036 0.338,-0.196 0.477,-0.337 0.077,-0.078 0.148,-0.15 0.214,-0.191 q 0.04,-0.029 0.073,-0.068 0.025,-0.031 0.056,-0.056 c 0.152,-0.125 0.297,-0.178 0.431,-0.227 a 1.6,1.6 0 0 0 0.368,-0.178 0.4,0.4 0 0 1 0.174,-0.03 q 0.046,0 0.097,-0.006 c 0.046,-0.006 0.111,-0.048 0.18,-0.092 0.049,-0.031 0.099,-0.063 0.145,-0.084 0.082,-0.038 0.135,-0.023 0.185,-0.009 a 0.3,0.3 0 0 0 0.064,0.013 q 0.015,0 0.036,-0.016 0.138,0.021 0.27,0.038 c 0.442,0.055 0.825,0.103 0.936,0.549 0.021,0.084 0.08,0.145 0.156,0.193 q 0.168,0.39 0.33,0.786 a 1.7,1.7 0 0 0 -0.218,0.432 c -0.078,0.252 -0.02,0.4 0.05,0.572 0.051,0.129 0.108,0.271 0.12,0.481 0.02,0.354 0.07,0.693 0.208,1.009 0.138,0.314 0.325,0.651 0.475,0.874 0.082,0.122 0.056,0.341 0.032,0.545 -0.035,0.287 -0.066,0.545 0.213,0.46 0.09,-0.026 0.227,-0.093 0.36,-0.16 0.096,-0.046 0.19,-0.091 0.262,-0.121 l 0.06,0.186 c -0.071,0.197 -0.115,0.448 0.142,0.448 l 0.06,0.192 0.123,0.404 0.04,0.133 v 0.002 l 0.08,0.27 0.034,0.115 0.084,0.292 0.044,0.155 0.072,0.254 0.112,0.411 q 0.01,0.036 -0.03,0.097 a 0.5,0.5 0 0 1 -0.11,0.12 0.5,0.5 0 0 1 -0.14,0.083 c -0.044,0.017 -0.08,0.019 -0.1,0.008 L 84.569,79.338 84.337,79.214 84.196,79.138 83.93,78.992 83.825,78.934 83.58,78.798 83.578,78.797 83.458,78.73 83.092,78.521 q -0.097,-0.054 -0.195,-0.112 l -0.11,-0.062 -0.058,-0.035 A 59,59 0 0 1 80.064,76.67 q -0.65,-0.425 -1.285,-0.86 c -2.688,-1.844 -5.253,-3.803 -7.598,-5.943 a 48,48 0 0 1 -2.258,-2.202 m 14.467,-1.83 c -0.775,-0.8 -0.731,-2.21 -1.431,-3.076 -0.87,-1.074 -2.439,-1.61 -3.184,-2.788 A 47,47 0 0 1 76.702,56.32 68,68 0 0 1 74.883,52.461 113,113 0 0 1 73.24,48.462 q -0.537,-1.376 -1.057,-2.765 -0.23,-0.608 -0.456,-1.217 l -0.34,-0.91 c -0.015,-0.043 0.005,-0.112 0.06,-0.194 0.053,-0.083 0.136,-0.172 0.233,-0.25 a 1.1,1.1 0 0 1 0.292,-0.177 c 0.092,-0.035 0.163,-0.04 0.2,-0.016 l 0.819,0.532 0.907,0.59 c -0.362,0.364 -0.616,0.665 -0.661,0.881 -0.023,0.11 0.014,0.213 0.136,0.213 0.109,0 0.26,-0.056 0.403,-0.11 0.15,-0.055 0.292,-0.108 0.37,-0.092 0.135,0.028 0.367,-0.03 0.61,-0.091 q 0.135,-0.034 0.267,-0.064 0.43,0.284 0.86,0.57 c 0.037,0.132 0.076,0.25 0.155,0.313 0.07,0.058 0.205,0.053 0.36,0.03 l 0.133,0.09 q 0.426,0.286 0.85,0.576 c 0.055,0.284 0.121,0.575 0.296,0.883 0.075,0.132 0.111,0.294 0.146,0.449 0.052,0.229 0.1,0.444 0.267,0.533 0.11,0.06 0.132,0.2 0.153,0.34 0.027,0.187 0.055,0.374 0.3,0.365 0.155,-0.006 0.326,-0.034 0.484,-0.06 0.251,-0.043 0.47,-0.08 0.544,-0.01 0.137,0.128 0.364,0.152 0.565,0.173 0.241,0.026 0.443,0.047 0.403,0.242 q -0.01,0.046 -0.029,0.108 c -0.063,0.219 -0.165,0.569 0.151,0.697 0.113,0.046 0.294,0.027 0.471,0.01 0.259,-0.027 0.51,-0.053 0.53,0.121 0.003,0.026 -0.028,0.081 -0.056,0.132 -0.037,0.064 -0.068,0.12 -0.02,0.097 0.145,-0.064 0.316,-0.12 0.502,-0.181 q 0.207,-0.066 0.43,-0.148 a 60,60 0 0 1 1.326,1.086 4,4 0 0 0 -0.284,0.59 c -0.079,0.227 -0.023,0.394 0.047,0.61 0.053,0.159 0.113,0.344 0.136,0.599 a 1,1 0 0 0 0.614,0.857 q 0.086,0.035 0.181,0.07 c 0.243,0.09 0.547,0.2 1.02,0.496 0.45,0.278 0.751,0.58 0.978,0.806 0.116,0.116 0.212,0.212 0.299,0.276 0.147,0.108 0.316,0.252 0.486,0.396 0.265,0.225 0.532,0.452 0.721,0.55 q 0.102,0.05 0.223,0.102 c 0.224,0.1 0.495,0.219 0.784,0.451 0.303,0.245 0.409,0.463 0.47,0.73 0.024,0.108 -0.072,0.3 -0.17,0.496 -0.141,0.28 -0.288,0.571 -0.105,0.656 0.043,0.02 0.107,0.026 0.175,0.032 0.124,0.011 0.258,0.023 0.286,0.124 0.01,0.036 -0.013,0.092 -0.035,0.147 -0.024,0.06 -0.047,0.12 -0.028,0.15 0.075,0.11 0.166,0.2 0.247,0.282 0.105,0.105 0.192,0.193 0.205,0.281 0.022,0.158 0.173,0.228 0.327,0.298 0.117,0.054 0.236,0.108 0.3,0.202 0.178,0.27 0.567,0.527 1.038,0.735 0.178,0.079 0.176,0.269 0.174,0.513 -0.001,0.151 -0.003,0.324 0.038,0.503 0.024,0.102 0.157,0.096 0.28,0.09 0.115,-0.005 0.22,-0.01 0.224,0.07 0.002,0.07 -0.116,0.213 -0.228,0.348 -0.124,0.15 -0.242,0.291 -0.177,0.315 0.035,0.013 0.13,-0.014 0.242,-0.046 l 0.14,-0.038 -0.075,0.058 a 0.58,0.58 0 0 0 -0.202,0.32 Q 92.157,63.34 92.129,63.4 c -0.07,0.15 -0.004,0.272 0.067,0.348 0.03,0.033 0.013,0.098 -0.007,0.174 -0.018,0.068 -0.038,0.144 -0.03,0.214 0.006,0.04 -0.018,0.092 -0.037,0.135 -0.014,0.032 -0.026,0.058 -0.024,0.072 0.002,0.012 0.047,-0.013 0.097,-0.04 a 1,1 0 0 1 0.104,-0.054 c 0.067,-0.026 0.101,-0.017 0.096,0.012 a 0.2,0.2 0 0 1 -0.023,0.05 c -0.012,0.02 -0.025,0.041 -0.023,0.055 0.004,0.065 0.082,0.069 0.162,0.073 0.088,0.004 0.18,0.01 0.183,0.094 a 0.4,0.4 0 0 1 -0.026,0.108 c -0.015,0.041 -0.028,0.082 -0.024,0.103 0.02,0.085 0.163,0.063 0.295,0.042 0.088,-0.014 0.171,-0.026 0.209,-0.006 0.069,0.037 0.21,-0.028 0.315,-0.076 0.054,-0.025 0.098,-0.046 0.117,-0.045 l 0.01,0.036 c -0.001,0.016 -0.003,0.031 0.006,0.037 l 0.002,0.001 c 0.013,0.073 0.012,0.155 0.012,0.236 -0.001,0.183 -0.003,0.364 0.14,0.438 0.031,0.016 0.1,0.002 0.17,-0.013 0.086,-0.017 0.173,-0.035 0.195,10e-4 0.053,0.087 0.037,0.23 0.021,0.371 -0.024,0.212 -0.047,0.42 0.165,0.421 0.07,0.001 0.167,-0.022 0.264,-0.045 q 0.084,-0.02 0.16,-0.035 -0.102,0.073 -0.187,0.138 c -0.12,0.09 -0.221,0.166 -0.32,0.216 -0.234,0.118 -0.547,0.29 -0.742,0.458 A 5,5 0 0 1 93.3,67.06 c -0.155,0.12 -0.313,0.243 -0.35,0.34 -0.026,0.066 -0.078,0.224 0.074,0.174 a 1,1 0 0 0 0.15,-0.085 c 0.11,-0.07 0.24,-0.152 0.301,-0.133 l 0.032,0.013 c 0.04,0.019 0.087,0.04 0.178,-0.012 0.106,-0.06 0.21,-0.15 0.33,-0.254 a 4,4 0 0 1 0.604,-0.453 c 0.05,-0.03 0.077,-0.031 0.096,-0.031 0.014,0 0.025,0 0.039,-0.011 q 0.025,-0.021 0.087,-0.078 c 0.139,-0.129 0.382,-0.353 0.449,-0.293 0.018,0.016 0.023,0.047 0.027,0.075 0.007,0.041 0.013,0.076 0.057,0.045 q 0.026,-0.018 0.053,-0.04 l 0.04,0.08 c -0.027,0.07 0.01,0.107 0.056,0.152 l 0.035,0.036 0.076,0.158 a 0.5,0.5 0 0 1 -0.02,0.202 c -0.046,0.168 -0.171,0.384 -0.294,0.595 q -0.08,0.134 -0.148,0.26 a 0.1,0.1 0 0 0 -0.055,-0.003 c -0.136,0.023 -0.335,0.15 -0.519,0.267 -0.122,0.077 -0.237,0.15 -0.321,0.185 -0.155,0.064 -0.297,0.186 -0.403,0.276 -0.054,0.047 -0.1,0.085 -0.13,0.102 -0.025,0.014 -0.043,0.013 -0.061,0.012 a 0.1,0.1 0 0 0 -0.055,0.008 c -0.266,0.106 -0.374,0.226 -0.53,0.401 a 4,4 0 0 1 -0.34,0.347 c -0.16,0.143 -0.211,0.18 -0.306,0.2 l -0.182,0.282 c 0.014,0.006 0.072,-0.028 0.167,-0.086 0.17,-0.105 0.279,-0.084 0.364,-0.069 a 0.3,0.3 0 0 0 0.107,0.006 c 0.175,-0.04 0.335,-0.198 0.475,-0.339 0.077,-0.077 0.149,-0.148 0.214,-0.19 q 0.04,-0.03 0.073,-0.068 0.026,-0.03 0.056,-0.056 c 0.152,-0.125 0.295,-0.18 0.428,-0.231 a 1.6,1.6 0 0 0 0.364,-0.183 0.4,0.4 0 0 1 0.172,-0.034 q 0.044,-10e-4 0.095,-0.009 c 0.044,-0.006 0.11,-0.049 0.178,-0.093 a 1,1 0 0 1 0.143,-0.086 c 0.082,-0.039 0.134,-0.026 0.182,-0.013 q 0.03,0.009 0.063,0.01 0.012,0 0.035,-0.017 0.134,0.016 0.263,0.03 c 0.43,0.04 0.803,0.076 0.9,0.502 0.018,0.081 0.074,0.138 0.148,0.182 q 0.153,0.373 0.301,0.75 a 1.7,1.7 0 0 0 -0.226,0.424 c -0.082,0.245 -0.029,0.386 0.034,0.551 0.047,0.122 0.099,0.258 0.105,0.461 0.01,0.34 0.049,0.667 0.176,0.968 0.126,0.3 0.3,0.62 0.441,0.83 0.077,0.116 0.045,0.328 0.016,0.526 -0.041,0.278 -0.078,0.528 0.197,0.439 0.088,-0.029 0.224,-0.098 0.356,-0.165 0.095,-0.048 0.187,-0.095 0.259,-0.125 l 0.054,0.177 c -0.075,0.193 -0.125,0.437 0.127,0.43 q 0.027,0.091 0.052,0.182 0.056,0.194 0.11,0.387 l 0.036,0.128 v 10e-4 q 0.036,0.13 0.07,0.259 l 0.03,0.11 0.076,0.28 0.038,0.148 0.063,0.243 0.1,0.394 q 0.007,0.034 -0.033,0.095 a 0.6,0.6 0 0 1 -0.11,0.119 0.6,0.6 0 0 1 -0.14,0.084 q -0.066,0.025 -0.098,0.01 L 98.37,76.659 98.147,76.545 98.011,76.475 97.654,76.29 97.418,76.165 97.416,76.164 97.3,76.103 96.948,75.912 96.76,75.809 96.656,75.752 96.599,75.72 a 54,54 0 0 1 -2.561,-1.509 q -0.625,-0.39 -1.233,-0.793 c -2.578,-1.704 -5.033,-3.522 -7.267,-5.52 A 43,43 0 0 1 83.39,65.835"
       id="path18" />
  </mask>
  <mask
     id="n"
     width="80"
     height="112"
     x="30"
     y="8"
     maskUnits="userSpaceOnUse">
    <path
       fill="#f8f8f8"
       d="M 30,20 C 30,13.373 35.373,8 42,8 h 56 c 6.627,0 12,5.373 12,12 v 88 c 0,6.627 -5.373,12 -12,12 H 42 c -6.627,0 -12,-5.373 -12,-12 z"
       id="path21" />
  </mask>
  <defs
     id="defs59">
    <linearGradient
       id="a"
       x1="30"
       x2="110"
       y1="120"
       y2="120"
       gradientUnits="userSpaceOnUse">
      <stop
         offset=".9"
         stop-color="#d0d0d0"
         id="stop29" />
      <stop
         offset=".95"
         stop-color="#fff"
         id="stop30" />
      <stop
         offset="1"
         stop-color="#f0f0f0"
         id="stop31" />
    </linearGradient>
    <linearGradient
       id="b"
       x1="30"
       x2="110"
       y1="118"
       y2="118"
       gradientUnits="userSpaceOnUse">
      <stop
         offset=".9"
         stop-color="#d0d0d0"
         id="stop32" />
      <stop
         offset=".95"
         stop-color="#fff"
         id="stop33" />
      <stop
         offset="1"
         stop-color="#f0f0f0"
         id="stop34" />
    </linearGradient>
    <linearGradient
       id="c"
       x1="30"
       x2="110"
       y1="116"
       y2="116"
       gradientUnits="userSpaceOnUse">
      <stop
         offset=".9"
         stop-color="#d0d0d0"
         id="stop35" />
      <stop
         offset=".95"
         stop-color="#fff"
         id="stop36" />
      <stop
         offset="1"
         stop-color="#f0f0f0"
         id="stop37" />
    </linearGradient>
    <linearGradient
       id="d"
       x1="30"
       x2="110"
       y1="114"
       y2="114"
       gradientUnits="userSpaceOnUse">
      <stop
         offset=".9"
         stop-color="#d0d0d0"
         id="stop38" />
      <stop
         offset=".95"
         stop-color="#fff"
         id="stop39" />
      <stop
         offset="1"
         stop-color="#f0f0f0"
         id="stop40" />
    </linearGradient>
    <linearGradient
       id="e"
       x1="18"
       x2="292.5"
       y1="120"
       y2="119.998"
       gradientUnits="userSpaceOnUse">
      <stop
         stop-color="#ffb278"
         id="stop41" />
      <stop
         offset=".02"
         stop-color="#d65c00"
         id="stop42" />
    </linearGradient>
    <linearGradient
       id="f"
       x1="110"
       x2="95"
       y1="11"
       y2="25"
       gradientUnits="userSpaceOnUse"
       gradientTransform="translate(-78,-8)">
      <stop
         stop-color="#f3f3f3"
         id="stop43" />
      <stop
         offset="1"
         stop-color="#e2e2e2"
         id="stop44" />
    </linearGradient>
    <linearGradient
       id="g"
       x1="110"
       x2="95"
       y1="11"
       y2="25"
       gradientUnits="userSpaceOnUse">
      <stop
         stop-color="#f3f3f3"
         id="stop45" />
      <stop
         offset="1"
         stop-color="#e2e2e2"
         id="stop46" />
    </linearGradient>
    <linearGradient
       id="j"
       x1="78"
       x2="93"
       y1="37"
       y2="23"
       gradientUnits="userSpaceOnUse">
      <stop
         offset=".187"
         stop-color="#f0f0f0"
         id="stop47" />
      <stop
         offset=".533"
         stop-color="#e0e0e0"
         id="stop48" />
      <stop
         offset=".624"
         stop-color="#e0e0e0"
         id="stop49" />
      <stop
         offset="1"
         stop-color="#f0f0f0"
         id="stop50" />
    </linearGradient>
    <filter
       id="i"
       width="32"
       height="34"
       x="78"
       y="8"
       color-interpolation-filters="sRGB"
       filterUnits="userSpaceOnUse">
      <feFlood
         flood-opacity="0"
         result="BackgroundImageFix"
         id="feFlood50" />
      <feColorMatrix
         in="SourceAlpha"
         result="hardAlpha"
         values="0 0 0 0 0 0 0 0 0 0 0 0 0 0 0 0 0 0 127 0"
         id="feColorMatrix50" />
      <feOffset
         dy="2"
         id="feOffset50" />
      <feComposite
         in2="hardAlpha"
         operator="out"
         id="feComposite50" />
      <feColorMatrix
         values="0 0 0 0 0.729412 0 0 0 0 0.721569 0 0 0 0 0.717647 0 0 0 1 0"
         id="feColorMatrix51" />
      <feBlend
         in2="BackgroundImageFix"
         result="effect1_dropShadow_246_10"
         id="feBlend51"
         mode="normal" />
      <feBlend
         in="SourceGraphic"
         in2="effect1_dropShadow_246_10"
         result="shape"
         id="feBlend52"
         mode="normal" />
    </filter>
    <filter
       id="k"
       width="4"
       height="6"
       x="106"
       y="40"
       color-interpolation-filters="sRGB"
       filterUnits="userSpaceOnUse">
      <feFlood
         flood-opacity="0"
         result="BackgroundImageFix"
         id="feFlood52" />
      <feColorMatrix
         in="SourceAlpha"
         result="hardAlpha"
         values="0 0 0 0 0 0 0 0 0 0 0 0 0 0 0 0 0 0 127 0"
         id="feColorMatrix52" />
      <feOffset
         dy="2"
         id="feOffset52" />
      <feComposite
         in2="hardAlpha"
         operator="out"
         id="feComposite52" />
      <feColorMatrix
         values="0 0 0 0 0.729412 0 0 0 0 0.721569 0 0 0 0 0.717647 0 0 0 1 0"
         id="feColorMatrix53" />
      <feBlend
         in2="BackgroundImageFix"
         result="effect1_dropShadow_246_10"
         id="feBlend53"
         mode="normal" />
      <feBlend
         in="SourceGraphic"
         in2="effect1_dropShadow_246_10"
         result="shape"
         id="feBlend54"
         mode="normal" />
    </filter>
    <filter
       id="m"
       width="59.032001"
       height="65.032997"
       x="40.081001"
       y="42.919998"
       color-interpolation-filters="sRGB"
       filterUnits="userSpaceOnUse">
      <feFlood
         flood-opacity="0"
         result="BackgroundImageFix"
         id="feFlood54" />
      <feBlend
         in="SourceGraphic"
         in2="BackgroundImageFix"
         result="shape"
         id="feBlend55"
         mode="normal" />
      <feColorMatrix
         in="SourceAlpha"
         result="hardAlpha"
         values="0 0 0 0 0 0 0 0 0 0 0 0 0 0 0 0 0 0 127 0"
         id="feColorMatrix55" />
      <feOffset
         dy="1"
         id="feOffset55" />
      <feComposite
         in2="hardAlpha"
         k2="-1"
         k3="1"
         operator="arithmetic"
         id="feComposite55"
         k1="0"
         k4="0" />
      <feColorMatrix
         values="0 0 0 0 0 0 0 0 0 0 0 0 0 0 0 0 0 0 0.25 0"
         id="feColorMatrix56" />
      <feBlend
         in2="shape"
         result="effect1_innerShadow_246_10"
         id="feBlend56"
         mode="normal" />
    </filter>
    <radialGradient
       id="o"
       cx="0"
       cy="0"
       r="1"
       gradientTransform="matrix(0,29,-61.2773,0,76.484,66)"
       gradientUnits="userSpaceOnUse">
      <stop
         stop-color="#ffba86"
         id="stop56" />
      <stop
         offset="1"
         stop-color="#ffba86"
         stop-opacity="0"
         id="stop57" />
    </radialGradient>
    <radialGradient
       id="p"
       cx="0"
       cy="0"
       r="1"
       gradientTransform="matrix(-20.00002,-20.00002,8.8439966,-8.8439966,87.999491,123.00058)"
       gradientUnits="userSpaceOnUse">
      <stop
         stop-color="#864d22"
         id="stop58" />
      <stop
         offset="1"
         stop-color="#864d22"
         stop-opacity="0"
         id="stop59" />
    </radialGradient>
  </defs>
</svg>
